<?xml version="1.0" standalone="no"?>
<!DOCTYPE svg PUBLIC "-//W3C//DTD SVG 1.1//EN" "http://www.w3.org/Graphics/SVG/1.1/DTD/svg11.dtd" >
<svg xmlns="http://www.w3.org/2000/svg">
<metadata>Generated by IcoMoon</metadata>
<defs>
<font id="aruti-custom-menu" horiz-adv-x="1024">
<font-face units-per-em="1024" ascent="960" descent="-64" />
<missing-glyph horiz-adv-x="1024" />
<glyph unicode="&#x20;" horiz-adv-x="512" d="" />
<glyph unicode="&#xe900;" glyph-name="activity" d="M640 20.992c-18.432 0-34.816 11.264-40.96 28.672l-215.040 646.144-87.040-261.12c-6.144-17.408-22.528-28.672-40.96-28.672h-171.008c-23.552 0-43.008 19.456-43.008 43.008s19.456 43.008 43.008 43.008h140.288l118.784 355.328c6.144 17.408 22.528 28.672 40.96 28.672s34.816-11.264 40.96-28.672l215.040-646.144 86.016 260.096c6.144 17.408 22.528 28.672 40.96 28.672h171.008c23.552 0 43.008-19.456 43.008-43.008s-19.456-43.008-43.008-43.008h-140.288l-117.76-353.28c-6.144-17.408-22.528-29.696-40.96-29.696z" />
<glyph unicode="&#xe901;" glyph-name="airplay" d="M852.992 192h-43.008c-23.552 0-43.008 19.456-43.008 43.008s19.456 43.008 43.008 43.008h43.008c23.552 0 43.008 19.456 43.008 43.008v425.984c0 23.552-19.456 43.008-43.008 43.008h-681.984c-23.552 0-43.008-19.456-43.008-43.008v-427.008c0-23.552 19.456-43.008 43.008-43.008h43.008c23.552 0 43.008-19.456 43.008-43.008s-20.48-41.984-44.032-41.984h-43.008c-69.632 0-126.976 57.344-126.976 128v427.008c0 70.656 57.344 128 128 128h683.008c70.656 0 128-57.344 128-128v-427.008c-1.024-70.656-58.368-128-129.024-128zM724.992 20.992h-425.984c-16.384 0-31.744 9.216-38.912 24.576s-5.12 32.768 6.144 45.056l212.992 256c8.192 10.24 20.48 15.36 32.768 15.36v0c12.288 0 24.576-5.12 32.768-15.36l212.992-256c10.24-12.288 13.312-30.72 6.144-45.056s-21.504-24.576-38.912-24.576zM390.144 107.008h244.736l-122.88 146.432-121.856-146.432z" />
<glyph unicode="&#xe902;" glyph-name="alert-circle" d="M512-20.992c-259.072 0-468.992 209.92-468.992 468.992s209.92 468.992 468.992 468.992 468.992-209.92 468.992-468.992c0-259.072-209.92-468.992-468.992-468.992zM512 832c-211.968 0-384-172.032-384-384s172.032-384 384-384c211.968 0 384 172.032 384 384s-172.032 384-384 384zM512 404.992c-23.552 0-43.008 19.456-43.008 43.008v171.008c0 23.552 19.456 43.008 43.008 43.008s43.008-19.456 43.008-43.008v-171.008c0-23.552-19.456-43.008-43.008-43.008zM512 235.008c-23.552 0-43.008 19.456-43.008 43.008s18.432 43.008 41.984 43.008v0c23.552 0 43.008-19.456 43.008-43.008s-18.432-43.008-41.984-43.008z" />
<glyph unicode="&#xe903;" glyph-name="alert-octagon" d="M689.152-20.992h-353.28c-11.264 0-22.528 4.096-29.696 12.288l-250.88 249.856c-8.192 8.192-12.288 18.432-12.288 29.696v353.28c0 11.264 4.096 22.528 12.288 29.696l249.856 250.88c8.192 8.192 18.432 12.288 29.696 12.288h353.28c11.264 0 22.528-4.096 29.696-12.288l249.856-249.856c8.192-8.192 12.288-18.432 12.288-29.696v-353.28c0-11.264-4.096-22.528-12.288-29.696l-248.832-250.88c-8.192-8.192-18.432-12.288-29.696-12.288zM353.28 64h317.44l225.28 225.28v317.44l-225.28 225.28h-317.44l-225.28-225.28v-317.44l225.28-225.28zM512 404.992c-23.552 0-43.008 19.456-43.008 43.008v171.008c0 23.552 19.456 43.008 43.008 43.008s43.008-19.456 43.008-43.008v-171.008c0-23.552-19.456-43.008-43.008-43.008zM512 235.008c-23.552 0-43.008 19.456-43.008 43.008s18.432 43.008 41.984 43.008v0c23.552 0 43.008-19.456 43.008-43.008s-18.432-43.008-41.984-43.008z" />
<glyph unicode="&#xe904;" glyph-name="alert-triangle" d="M150.528 20.992c-22.528 0-44.032 6.144-63.488 17.408-29.696 17.408-51.2 45.056-59.392 77.824s-4.096 67.584 13.312 97.28l361.472 604.16c0 0 0 0 0 0 10.24 17.408 25.6 32.768 43.008 43.008 29.696 17.408 63.488 22.528 97.28 14.336 32.768-8.192 61.44-28.672 78.848-58.368l361.472-603.136c11.264-19.456 17.408-40.96 17.408-63.488 1.024-70.656-56.32-129.024-126.976-129.024h-722.944zM475.136 773.632l-360.448-603.136c-5.12-9.216-7.168-20.48-4.096-31.744s10.24-20.48 19.456-25.6c6.144-4.096 13.312-6.144 20.48-6.144h721.92c23.552 0 41.984 19.456 41.984 43.008 0 7.168-2.048 14.336-6.144 20.48l-359.424 603.136c-6.144 9.216-15.36 16.384-26.624 19.456s-22.528 1.024-32.768-5.12c-5.12-4.096-10.24-9.216-14.336-14.336zM512 363.008c-23.552 0-43.008 19.456-43.008 43.008v169.984c0 23.552 19.456 43.008 43.008 43.008s43.008-19.456 43.008-43.008v-171.008c0-23.552-19.456-41.984-43.008-41.984zM512 192c-23.552 0-43.008 19.456-43.008 43.008s18.432 43.008 41.984 43.008v0c23.552 0 43.008-19.456 43.008-43.008s-18.432-43.008-41.984-43.008z" />
<glyph unicode="&#xe905;" glyph-name="align-center" d="M768 491.008h-512c-23.552 0-43.008 19.456-43.008 43.008s19.456 43.008 43.008 43.008h512c23.552 0 43.008-19.456 43.008-43.008s-19.456-43.008-43.008-43.008zM896 660.992h-768c-23.552 0-43.008 19.456-43.008 43.008s19.456 43.008 43.008 43.008h768c23.552 0 43.008-19.456 43.008-43.008s-19.456-43.008-43.008-43.008zM896 320h-768c-23.552 0-43.008 19.456-43.008 43.008s19.456 43.008 43.008 43.008h768c23.552 0 43.008-19.456 43.008-43.008s-19.456-43.008-43.008-43.008zM768 148.992h-512c-23.552 0-43.008 19.456-43.008 43.008s19.456 43.008 43.008 43.008h512c23.552 0 43.008-19.456 43.008-43.008s-19.456-43.008-43.008-43.008z" />
<glyph unicode="&#xe906;" glyph-name="align-justify" d="M896 491.008h-768c-23.552 0-43.008 19.456-43.008 43.008s19.456 43.008 43.008 43.008h768c23.552 0 43.008-19.456 43.008-43.008s-19.456-43.008-43.008-43.008zM896 660.992h-768c-23.552 0-43.008 19.456-43.008 43.008s19.456 43.008 43.008 43.008h768c23.552 0 43.008-19.456 43.008-43.008s-19.456-43.008-43.008-43.008zM896 320h-768c-23.552 0-43.008 19.456-43.008 43.008s19.456 43.008 43.008 43.008h768c23.552 0 43.008-19.456 43.008-43.008s-19.456-43.008-43.008-43.008zM896 148.992h-768c-23.552 0-43.008 19.456-43.008 43.008s19.456 43.008 43.008 43.008h768c23.552 0 43.008-19.456 43.008-43.008s-19.456-43.008-43.008-43.008z" />
<glyph unicode="&#xe907;" glyph-name="align-left" d="M724.992 491.008h-596.992c-23.552 0-43.008 19.456-43.008 43.008s19.456 43.008 43.008 43.008h596.992c23.552 0 43.008-19.456 43.008-43.008s-19.456-43.008-43.008-43.008zM896 660.992h-768c-23.552 0-43.008 19.456-43.008 43.008s19.456 43.008 43.008 43.008h768c23.552 0 43.008-19.456 43.008-43.008s-19.456-43.008-43.008-43.008zM896 320h-768c-23.552 0-43.008 19.456-43.008 43.008s19.456 43.008 43.008 43.008h768c23.552 0 43.008-19.456 43.008-43.008s-19.456-43.008-43.008-43.008zM724.992 148.992h-596.992c-23.552 0-43.008 19.456-43.008 43.008s19.456 43.008 43.008 43.008h596.992c23.552 0 43.008-19.456 43.008-43.008s-19.456-43.008-43.008-43.008z" />
<glyph unicode="&#xe908;" glyph-name="align-right" d="M896 491.008h-596.992c-23.552 0-43.008 19.456-43.008 43.008s19.456 43.008 43.008 43.008h596.992c23.552 0 43.008-19.456 43.008-43.008s-19.456-43.008-43.008-43.008zM896 660.992h-768c-23.552 0-43.008 19.456-43.008 43.008s19.456 43.008 43.008 43.008h768c23.552 0 43.008-19.456 43.008-43.008s-19.456-43.008-43.008-43.008zM896 320h-768c-23.552 0-43.008 19.456-43.008 43.008s19.456 43.008 43.008 43.008h768c23.552 0 43.008-19.456 43.008-43.008s-19.456-43.008-43.008-43.008zM896 148.992h-596.992c-23.552 0-43.008 19.456-43.008 43.008s19.456 43.008 43.008 43.008h596.992c23.552 0 43.008-19.456 43.008-43.008s-19.456-43.008-43.008-43.008z" />
<glyph unicode="&#xe909;" glyph-name="anchor" d="M512 576c-94.208 0-171.008 76.8-171.008 171.008s76.8 169.984 171.008 169.984c94.208 0 171.008-76.8 171.008-171.008s-76.8-169.984-171.008-169.984zM512 832c-47.104 0-84.992-37.888-84.992-84.992s37.888-84.992 84.992-84.992c47.104 0 84.992 37.888 84.992 84.992s-37.888 84.992-84.992 84.992zM512-20.992c-23.552 0-43.008 19.456-43.008 43.008v596.992c0 23.552 19.456 43.008 43.008 43.008s43.008-19.456 43.008-43.008v-596.992c0-24.576-19.456-43.008-43.008-43.008zM512-20.992c-259.072 0-468.992 209.92-468.992 468.992 0 23.552 19.456 43.008 43.008 43.008h128c23.552 0 43.008-19.456 43.008-43.008s-19.456-43.008-43.008-43.008h-82.944c21.504-191.488 184.32-340.992 381.952-340.992s360.448 149.504 381.952 340.992h-82.944c-23.552 0-43.008 19.456-43.008 43.008s19.456 43.008 43.008 43.008h128c23.552 0 43.008-19.456 43.008-43.008-2.048-259.072-211.968-468.992-471.040-468.992z" />
<glyph unicode="&#xe90a;" glyph-name="aperture" d="M512-20.992c-259.072 0-468.992 209.92-468.992 468.992s209.92 468.992 468.992 468.992 468.992-209.92 468.992-468.992c0-259.072-209.92-468.992-468.992-468.992zM512 832c-211.968 0-384-172.032-384-384s172.032-384 384-384c211.968 0 384 172.032 384 384s-172.032 384-384 384zM855.040 152.064c-14.336 0-28.672 7.168-36.864 21.504l-244.736 423.936c-12.288 20.48-5.12 46.080 15.36 58.368s46.080 5.12 58.368-15.36l244.736-423.936c12.288-20.48 5.12-46.080-15.36-58.368-6.144-4.096-13.312-6.144-21.504-6.144zM903.168 576h-489.472c-23.552 0-43.008 19.456-43.008 43.008s19.456 43.008 43.008 43.008h489.472c23.552 0 43.008-19.456 43.008-43.008s-19.456-43.008-43.008-43.008zM314.368 404.992c-7.168 0-14.336 2.048-21.504 6.144-20.48 12.288-27.648 37.888-15.36 58.368l245.76 423.936c12.288 20.48 37.888 27.648 58.368 15.36s27.648-37.888 15.36-58.368l-244.736-423.936c-8.192-13.312-22.528-21.504-37.888-21.504zM413.696 235.008c-14.336 0-28.672 7.168-36.864 21.504l-244.736 423.936c-12.288 20.48-5.12 46.080 15.36 58.368 20.48 11.264 46.080 5.12 58.368-15.36l244.736-424.96c12.288-20.48 5.12-46.080-15.36-58.368-7.168-4.096-14.336-5.12-21.504-5.12zM610.304 235.008h-489.472c-23.552 0-43.008 19.456-43.008 43.008s19.456 43.008 43.008 43.008h489.472c23.552 0 43.008-19.456 43.008-43.008s-19.456-43.008-43.008-43.008zM463.872-18.944c-7.168 0-14.336 2.048-21.504 6.144-20.48 12.288-27.648 37.888-15.36 58.368l244.736 423.936c12.288 20.48 37.888 27.648 58.368 15.36s27.648-37.888 15.36-58.368l-244.736-423.936c-7.168-13.312-21.504-21.504-36.864-21.504z" />
<glyph unicode="&#xe90b;" glyph-name="archive" d="M896 20.992h-768c-23.552 0-43.008 19.456-43.008 43.008v555.008c0 23.552 19.456 43.008 43.008 43.008s43.008-19.456 43.008-43.008v-512h683.008v512c0 23.552 19.456 43.008 43.008 43.008s43.008-19.456 43.008-43.008v-555.008c-1.024-23.552-20.48-43.008-44.032-43.008zM980.992 576h-937.984c-23.552 0-43.008 19.456-43.008 43.008v212.992c0 23.552 19.456 43.008 43.008 43.008h939.008c23.552 0 43.008-19.456 43.008-43.008v-212.992c-1.024-23.552-20.48-43.008-44.032-43.008zM84.992 660.992h852.992v128h-852.992v-128zM596.992 404.992h-169.984c-23.552 0-43.008 19.456-43.008 43.008s19.456 43.008 43.008 43.008h171.008c23.552 0 43.008-19.456 43.008-43.008-1.024-23.552-20.48-43.008-44.032-43.008z" />
<glyph unicode="&#xe90c;" glyph-name="arrow-down" d="M512 107.008c-23.552 0-43.008 19.456-43.008 43.008v596.992c0 23.552 19.456 43.008 43.008 43.008s43.008-19.456 43.008-43.008v-596.992c0-24.576-19.456-43.008-43.008-43.008zM512 107.008v0c-11.264 0-22.528 4.096-29.696 12.288l-299.008 299.008c-16.384 16.384-16.384 44.032 0 60.416s44.032 16.384 60.416 0l268.288-269.312 268.288 268.288c16.384 16.384 44.032 16.384 60.416 0s16.384-44.032 0-60.416l-299.008-297.984c-7.168-8.192-18.432-12.288-29.696-12.288z" />
<glyph unicode="&#xe90d;" glyph-name="arrow-down-circle" d="M512-20.992c-259.072 0-468.992 209.92-468.992 468.992s209.92 468.992 468.992 468.992 468.992-209.92 468.992-468.992c0-259.072-209.92-468.992-468.992-468.992zM512 832c-211.968 0-384-172.032-384-384s172.032-384 384-384c211.968 0 384 172.032 384 384s-172.032 384-384 384zM512 235.008v0c-11.264 0-22.528 4.096-29.696 12.288l-171.008 171.008c-16.384 16.384-16.384 44.032 0 60.416s44.032 16.384 60.416 0l140.288-141.312 140.288 140.288c16.384 16.384 44.032 16.384 60.416 0s16.384-44.032 0-60.416l-171.008-169.984c-7.168-8.192-18.432-12.288-29.696-12.288zM512 235.008c-23.552 0-43.008 19.456-43.008 43.008v340.992c0 23.552 19.456 43.008 43.008 43.008s43.008-19.456 43.008-43.008v-340.992c0-24.576-19.456-43.008-43.008-43.008z" />
<glyph unicode="&#xe90e;" glyph-name="arrow-down-left" d="M299.008 192c-11.264 0-21.504 4.096-29.696 12.288-16.384 16.384-16.384 44.032 0 60.416l427.008 427.008c16.384 16.384 44.032 16.384 60.416 0s16.384-44.032 0-60.416l-428.032-427.008c-8.192-8.192-19.456-12.288-29.696-12.288zM724.992 192h-425.984c-23.552 0-43.008 19.456-43.008 43.008v425.984c0 23.552 19.456 43.008 43.008 43.008s43.008-19.456 43.008-43.008v-384h384c23.552 0 43.008-19.456 43.008-43.008s-20.48-41.984-44.032-41.984z" />
<glyph unicode="&#xe90f;" glyph-name="arrow-down-right" d="M724.992 192c-11.264 0-21.504 4.096-29.696 12.288l-427.008 427.008c-16.384 16.384-16.384 44.032 0 60.416s44.032 16.384 60.416 0l427.008-427.008c16.384-16.384 16.384-44.032 0-60.416-8.192-8.192-19.456-12.288-30.72-12.288zM724.992 192h-425.984c-23.552 0-43.008 19.456-43.008 43.008s19.456 43.008 43.008 43.008h384v382.976c0 23.552 19.456 43.008 43.008 43.008s43.008-19.456 43.008-43.008v-427.008c-1.024-22.528-20.48-41.984-44.032-41.984z" />
<glyph unicode="&#xe910;" glyph-name="arrow-left" d="M811.008 404.992h-598.016c-23.552 0-43.008 19.456-43.008 43.008s19.456 43.008 43.008 43.008h596.992c23.552 0 43.008-19.456 43.008-43.008s-18.432-43.008-41.984-43.008zM512 107.008c-11.264 0-21.504 4.096-29.696 12.288l-299.008 299.008c-16.384 16.384-16.384 44.032 0 60.416l299.008 299.008c16.384 16.384 44.032 16.384 60.416 0s16.384-44.032 0-60.416l-269.312-269.312 268.288-268.288c16.384-16.384 16.384-44.032 0-60.416-8.192-8.192-18.432-12.288-29.696-12.288z" />
<glyph unicode="&#xe911;" glyph-name="arrow-left-circle" d="M512-20.992c-259.072 0-468.992 209.92-468.992 468.992s209.92 468.992 468.992 468.992 468.992-209.92 468.992-468.992c0-259.072-209.92-468.992-468.992-468.992zM512 832c-211.968 0-384-172.032-384-384s172.032-384 384-384c211.968 0 384 172.032 384 384s-172.032 384-384 384zM512 235.008c-11.264 0-21.504 4.096-29.696 12.288l-171.008 171.008c-16.384 16.384-16.384 44.032 0 60.416l171.008 171.008c16.384 16.384 44.032 16.384 60.416 0s16.384-44.032 0-60.416l-141.312-141.312 140.288-140.288c16.384-16.384 16.384-44.032 0-60.416-8.192-8.192-18.432-12.288-29.696-12.288zM683.008 404.992h-342.016c-23.552 0-43.008 19.456-43.008 43.008s19.456 43.008 43.008 43.008h340.992c23.552 0 43.008-19.456 43.008-43.008s-18.432-43.008-41.984-43.008z" />
<glyph unicode="&#xe912;" glyph-name="arrow-right" d="M811.008 404.992h-598.016c-23.552 0-43.008 19.456-43.008 43.008s19.456 43.008 43.008 43.008h596.992c23.552 0 43.008-19.456 43.008-43.008s-18.432-43.008-41.984-43.008zM512 107.008c-11.264 0-21.504 4.096-29.696 12.288-16.384 16.384-16.384 44.032 0 60.416l268.288 268.288-268.288 268.288c-16.384 16.384-16.384 44.032 0 60.416s44.032 16.384 60.416 0l299.008-299.008c16.384-16.384 16.384-44.032 0-60.416l-300.032-297.984c-8.192-8.192-18.432-12.288-29.696-12.288z" />
<glyph unicode="&#xe913;" glyph-name="arrow-right-circle" d="M512-20.992c-259.072 0-468.992 209.92-468.992 468.992s209.92 468.992 468.992 468.992 468.992-209.92 468.992-468.992c0-259.072-209.92-468.992-468.992-468.992zM512 832c-211.968 0-384-172.032-384-384s172.032-384 384-384c211.968 0 384 172.032 384 384s-172.032 384-384 384zM512 235.008c-11.264 0-21.504 4.096-29.696 12.288-16.384 16.384-16.384 44.032 0 60.416l140.288 140.288-140.288 140.288c-16.384 16.384-16.384 44.032 0 60.416s44.032 16.384 60.416 0l171.008-171.008c16.384-16.384 16.384-44.032 0-60.416l-172.032-169.984c-8.192-8.192-18.432-12.288-29.696-12.288zM683.008 404.992h-342.016c-23.552 0-43.008 19.456-43.008 43.008s19.456 43.008 43.008 43.008h340.992c23.552 0 43.008-19.456 43.008-43.008s-18.432-43.008-41.984-43.008z" />
<glyph unicode="&#xe914;" glyph-name="arrow-up" d="M512 107.008c-23.552 0-43.008 19.456-43.008 43.008v596.992c0 23.552 19.456 43.008 43.008 43.008s43.008-19.456 43.008-43.008v-596.992c0-24.576-19.456-43.008-43.008-43.008zM212.992 404.992c-11.264 0-21.504 4.096-29.696 12.288-16.384 16.384-16.384 44.032 0 60.416l299.008 299.008c8.192 8.192 18.432 12.288 29.696 12.288s22.528-4.096 29.696-12.288l299.008-299.008c16.384-16.384 16.384-44.032 0-60.416s-44.032-16.384-60.416 0l-268.288 269.312-268.288-268.288c-8.192-9.216-19.456-13.312-30.72-13.312z" />
<glyph unicode="&#xe915;" glyph-name="arrow-up-circle" d="M512-20.992c-259.072 0-468.992 209.92-468.992 468.992s209.92 468.992 468.992 468.992 468.992-209.92 468.992-468.992c0-259.072-209.92-468.992-468.992-468.992zM512 832c-211.968 0-384-172.032-384-384s172.032-384 384-384c211.968 0 384 172.032 384 384s-172.032 384-384 384zM683.008 404.992c-11.264 0-21.504 4.096-29.696 12.288l-141.312 141.312-140.288-140.288c-16.384-16.384-44.032-16.384-60.416 0s-16.384 44.032 0 60.416l171.008 171.008c8.192 8.192 18.432 12.288 29.696 12.288s22.528-4.096 29.696-12.288l171.008-171.008c16.384-16.384 16.384-44.032 0-60.416-8.192-9.216-19.456-13.312-29.696-13.312zM512 235.008c-23.552 0-43.008 19.456-43.008 43.008v340.992c0 23.552 19.456 43.008 43.008 43.008s43.008-19.456 43.008-43.008v-340.992c0-24.576-19.456-43.008-43.008-43.008z" />
<glyph unicode="&#xe916;" glyph-name="arrow-up-left" d="M724.992 192c-11.264 0-21.504 4.096-29.696 12.288l-427.008 427.008c-16.384 16.384-16.384 44.032 0 60.416s44.032 16.384 60.416 0l427.008-427.008c16.384-16.384 16.384-44.032 0-60.416-8.192-8.192-19.456-12.288-30.72-12.288zM299.008 192c-23.552 0-43.008 19.456-43.008 43.008v425.984c0 23.552 19.456 43.008 43.008 43.008h427.008c23.552 0 43.008-19.456 43.008-43.008s-19.456-43.008-43.008-43.008h-385.024v-384c0-22.528-18.432-41.984-41.984-41.984z" />
<glyph unicode="&#xe917;" glyph-name="arrow-up-right" d="M299.008 192c-11.264 0-21.504 4.096-29.696 12.288-16.384 16.384-16.384 44.032 0 60.416l427.008 427.008c16.384 16.384 44.032 16.384 60.416 0s16.384-44.032 0-60.416l-428.032-427.008c-8.192-8.192-19.456-12.288-29.696-12.288zM724.992 192c-23.552 0-43.008 19.456-43.008 43.008v384h-382.976c-23.552 0-43.008 19.456-43.008 43.008s19.456 43.008 43.008 43.008h427.008c23.552 0 43.008-19.456 43.008-43.008v-427.008c-1.024-23.552-20.48-43.008-44.032-43.008z" />
<glyph unicode="&#xe918;" glyph-name="at-sign" d="M512 235.008c-117.76 0-212.992 95.232-212.992 212.992s95.232 212.992 212.992 212.992 212.992-95.232 212.992-212.992c0-117.76-95.232-212.992-212.992-212.992zM512 576c-70.656 0-128-57.344-128-128s57.344-128 128-128 128 57.344 128 128-57.344 128-128 128zM512-20.992c-124.928 0-242.688 49.152-331.776 137.216s-137.216 206.848-137.216 331.776c0 259.072 209.92 468.992 468.992 468.992s468.992-210.944 468.992-468.992v-43.008c0-94.208-76.8-171.008-171.008-171.008s-171.008 76.8-171.008 171.008v214.016c0 23.552 19.456 43.008 43.008 43.008s43.008-19.456 43.008-43.008v-212.992c0-47.104 37.888-84.992 84.992-84.992s84.992 37.888 84.992 84.992v41.984c0 211.968-172.032 384-384 384-102.4 0-198.656-39.936-271.36-112.64s-112.64-168.96-112.64-271.36c0-102.4 39.936-198.656 112.64-271.36s168.96-112.64 271.36-112.64c0 0 0 0 0 0 83.968 0 166.912 27.648 233.472 78.848 18.432 14.336 45.056 11.264 59.392-8.192 14.336-18.432 11.264-45.056-8.192-59.392-79.872-62.464-181.248-96.256-283.648-96.256 0 0 0 0 0 0z" />
<glyph unicode="&#xe919;" glyph-name="award" d="M512 276.992c-188.416 0-340.992 153.6-340.992 340.992s152.576 342.016 340.992 342.016 340.992-153.6 340.992-340.992-152.576-342.016-340.992-342.016zM512 875.008c-141.312 0-256-114.688-256-256s114.688-256 256-256 256 114.688 256 256-114.688 256-256 256zM724.992-64c-7.168 0-15.36 2.048-21.504 6.144l-191.488 114.688-191.488-114.688c-14.336-8.192-31.744-8.192-45.056 1.024s-21.504 24.576-18.432 40.96l51.2 389.12c3.072 23.552 24.576 39.936 48.128 36.864s39.936-24.576 36.864-48.128l-39.936-301.056 137.216 82.944c13.312 8.192 30.72 8.192 44.032 0l137.216-82.944-39.936 301.056c-3.072 23.552 13.312 45.056 36.864 48.128s45.056-13.312 48.128-36.864l51.2-389.12c2.048-16.384-5.12-32.768-18.432-40.96-8.192-5.12-16.384-7.168-24.576-7.168z" />
<glyph unicode="&#xe91a;" glyph-name="bar-chart" d="M512 64c-23.552 0-43.008 19.456-43.008 43.008v425.984c0 23.552 19.456 43.008 43.008 43.008s43.008-19.456 43.008-43.008v-427.008c0-22.528-19.456-41.984-43.008-41.984zM768 64c-23.552 0-43.008 19.456-43.008 43.008v681.984c0 23.552 19.456 43.008 43.008 43.008s43.008-19.456 43.008-43.008v-683.008c0-22.528-19.456-41.984-43.008-41.984zM256 64c-23.552 0-43.008 19.456-43.008 43.008v169.984c0 23.552 19.456 43.008 43.008 43.008s43.008-19.456 43.008-43.008v-171.008c0-22.528-19.456-41.984-43.008-41.984z" />
<glyph unicode="&#xe91b;" glyph-name="bar-chart-2" d="M768 64c-23.552 0-43.008 19.456-43.008 43.008v425.984c0 23.552 19.456 43.008 43.008 43.008s43.008-19.456 43.008-43.008v-427.008c0-22.528-19.456-41.984-43.008-41.984zM512 64c-23.552 0-43.008 19.456-43.008 43.008v681.984c0 23.552 19.456 43.008 43.008 43.008s43.008-19.456 43.008-43.008v-683.008c0-22.528-19.456-41.984-43.008-41.984zM256 64c-23.552 0-43.008 19.456-43.008 43.008v256c0 23.552 19.456 43.008 43.008 43.008s43.008-19.456 43.008-43.008v-256c0-23.552-19.456-43.008-43.008-43.008z" />
<glyph unicode="&#xe91c;" glyph-name="battery" d="M724.992 148.992h-596.992c-70.656 0-128 57.344-128 128v342.016c0 70.656 57.344 128 128 128h596.992c70.656 0 128-57.344 128-128v-340.992c0-71.68-57.344-129.024-128-129.024zM128 660.992c-23.552 0-43.008-19.456-43.008-43.008v-340.992c0-23.552 19.456-43.008 43.008-43.008h596.992c23.552 0 43.008 19.456 43.008 43.008v342.016c0 23.552-19.456 43.008-43.008 43.008h-596.992zM980.992 363.008c-23.552 0-43.008 19.456-43.008 43.008v84.992c0 23.552 19.456 43.008 43.008 43.008s43.008-19.456 43.008-43.008v-84.992c0-24.576-19.456-43.008-43.008-43.008z" />
<glyph unicode="&#xe91d;" glyph-name="battery-charging" d="M724.992 148.992h-136.192c-23.552 0-43.008 19.456-43.008 43.008s19.456 43.008 43.008 43.008h136.192c23.552 0 43.008 19.456 43.008 43.008v340.992c0 23.552-19.456 43.008-43.008 43.008h-84.992c-23.552 0-43.008 19.456-43.008 43.008s19.456 43.008 43.008 43.008h84.992c70.656 0 128-57.344 128-128v-340.992c0-72.704-57.344-130.048-128-130.048zM212.992 148.992h-84.992c-70.656 0-128 57.344-128 128v342.016c0 70.656 57.344 128 128 128h136.192c23.552 0 43.008-19.456 43.008-43.008s-19.456-43.008-43.008-43.008h-136.192c-23.552 0-43.008-19.456-43.008-43.008v-340.992c0-23.552 19.456-43.008 43.008-43.008h84.992c23.552 0 43.008-19.456 43.008-43.008s-19.456-41.984-43.008-41.984zM980.992 363.008c-23.552 0-43.008 19.456-43.008 43.008v84.992c0 23.552 19.456 43.008 43.008 43.008s43.008-19.456 43.008-43.008v-84.992c0-24.576-19.456-43.008-43.008-43.008zM384 148.992c-8.192 0-16.384 2.048-23.552 7.168-19.456 13.312-24.576 39.936-12.288 59.392l125.952 189.44h-175.104c-15.36 0-29.696 8.192-37.888 22.528-7.168 14.336-6.144 30.72 2.048 44.032l171.008 256c13.312 19.456 39.936 24.576 59.392 12.288 19.456-13.312 24.576-39.936 12.288-59.392l-126.976-189.44h176.128c15.36 0 29.696-8.192 37.888-22.528 7.168-14.336 6.144-30.72-2.048-44.032l-171.008-256c-8.192-12.288-22.528-19.456-35.84-19.456z" />
<glyph unicode="&#xe91e;" glyph-name="bell" d="M896 192h-768c-18.432 0-35.84 12.288-40.96 30.72s1.024 37.888 17.408 48.128c1.024 0 108.544 80.896 108.544 348.16 0 163.84 134.144 297.984 299.008 297.984s299.008-134.144 299.008-299.008c0-267.264 108.544-348.16 109.568-349.184 15.36-10.24 22.528-29.696 16.384-48.128-5.12-16.384-22.528-28.672-40.96-28.672zM219.136 276.992h585.728c-38.912 63.488-78.848 169.984-78.848 340.992 0 117.76-95.232 212.992-212.992 212.992s-212.992-95.232-212.992-212.992c-1.024-169.984-41.984-277.504-80.896-340.992zM512-20.992c-22.528 0-44.032 6.144-64.512 17.408-19.456 11.264-34.816 27.648-46.080 46.080-12.288 20.48-5.12 46.080 15.36 58.368s46.080 5.12 58.368-15.36c4.096-6.144 9.216-12.288 15.36-15.36 10.24-6.144 21.504-7.168 32.768-4.096s20.48 10.24 25.6 19.456c12.288 20.48 37.888 27.648 58.368 15.36s27.648-37.888 15.36-58.368c-17.408-29.696-45.056-51.2-77.824-59.392-11.264-3.072-21.504-4.096-32.768-4.096z" />
<glyph unicode="&#xe91f;" glyph-name="bell-off" d="M512-20.992c-22.528 0-44.032 6.144-64.512 17.408-19.456 11.264-34.816 27.648-46.080 46.080-12.288 20.48-5.12 46.080 15.36 58.368s46.080 5.12 58.368-15.36c4.096-6.144 9.216-12.288 15.36-15.36 10.24-6.144 21.504-7.168 32.768-4.096s20.48 10.24 25.6 19.456c12.288 20.48 37.888 27.648 58.368 15.36s27.648-37.888 15.36-58.368c-17.408-29.696-45.056-51.2-77.824-59.392-11.264-3.072-21.504-4.096-32.768-4.096zM794.624 363.008c-18.432 0-35.84 12.288-40.96 31.744-20.48 73.728-29.696 149.504-28.672 225.28 0 23.552 19.456 43.008 43.008 41.984 23.552 0 41.984-19.456 41.984-43.008-1.024-67.584 7.168-136.192 25.6-201.728 6.144-22.528-7.168-46.080-29.696-52.224-3.072-2.048-7.168-2.048-11.264-2.048zM724.992 192h-596.992c-18.432 0-35.84 12.288-40.96 30.72s1.024 37.888 17.408 48.128c1.024 0 108.544 80.896 108.544 348.16 0 29.696 4.096 58.368 13.312 87.040 7.168 22.528 30.72 34.816 53.248 28.672 22.528-7.168 34.816-30.72 28.672-53.248-6.144-19.456-9.216-40.96-9.216-61.44 0-171.008-40.96-278.528-78.848-340.992h505.856c23.552 0 43.008-19.456 43.008-43.008s-20.48-44.032-44.032-44.032zM768 576c0 0 0 0 0 0-23.552 0-43.008 19.456-43.008 43.008 0 57.344-22.528 110.592-62.464 150.528s-94.208 62.464-150.528 62.464c0 0 0 0 0 0-41.984 0-82.944-12.288-118.784-35.84-19.456-13.312-46.080-8.192-59.392 12.288-13.312 19.456-8.192 46.080 12.288 59.392 49.152 32.768 106.496 50.176 165.888 50.176 0 0 0 0 0 0 79.872 0 154.624-31.744 210.944-88.064s87.040-131.072 87.040-210.944c1.024-23.552-18.432-43.008-41.984-43.008zM980.992-64c-11.264 0-21.504 4.096-29.696 12.288l-939.008 939.008c-16.384 16.384-16.384 44.032 0 60.416s44.032 16.384 60.416 0l939.008-939.008c16.384-16.384 16.384-44.032 0-60.416-8.192-8.192-19.456-12.288-30.72-12.288z" />
<glyph unicode="&#xe920;" glyph-name="bluetooth" d="M512-64c-5.12 0-11.264 1.024-16.384 3.072-16.384 6.144-26.624 22.528-26.624 38.912v366.592l-161.792-161.792c-16.384-16.384-44.032-16.384-60.416 0s-16.384 44.032 0 60.416l204.8 204.8-204.8 204.8c-16.384 16.384-16.384 44.032 0 60.416s44.032 16.384 60.416 0l161.792-161.792v365.568c0 17.408 10.24 32.768 26.624 38.912 16.384 7.168 34.816 4.096 46.080-8.192l234.496-234.496c8.192-8.192 12.288-18.432 12.288-29.696s-4.096-22.528-12.288-29.696l-204.8-204.8 204.8-204.8c8.192-8.192 12.288-18.432 12.288-29.696s-4.096-22.528-12.288-29.696l-234.496-236.544c-8.192-8.192-18.432-12.288-29.696-12.288zM555.008 344.576v-263.168l131.072 132.096-131.072 131.072zM555.008 814.592v-263.168l131.072 131.072-131.072 132.096z" />
<glyph unicode="&#xe921;" glyph-name="bold" d="M596.992 404.992h-340.992c-23.552 0-43.008 19.456-43.008 43.008v340.992c0 23.552 19.456 43.008 43.008 43.008h340.992c117.76 0 212.992-95.232 212.992-212.992 1.024-117.76-95.232-214.016-212.992-214.016zM299.008 491.008h299.008c70.656 0 128 57.344 128 128s-57.344 128-128 128h-299.008v-256zM640 64h-384c-23.552 0-43.008 19.456-43.008 43.008v340.992c0 23.552 19.456 43.008 43.008 43.008h384c117.76 0 212.992-95.232 212.992-212.992s-95.232-214.016-212.992-214.016zM299.008 148.992h340.992c70.656 0 128 57.344 128 128s-57.344 128-128 128h-340.992v-256z" />
<glyph unicode="&#xe922;" glyph-name="book" d="M171.008 85.504c-23.552 0-43.008 19.456-43.008 43.008 0 81.92 66.56 149.504 149.504 149.504h575.488c23.552 0 43.008-19.456 43.008-43.008s-19.456-43.008-43.008-43.008h-575.488c-34.816 0-64.512-28.672-64.512-64.512 0-23.552-18.432-41.984-41.984-41.984zM852.992-20.992h-575.488c-81.92 0-149.504 66.56-149.504 149.504v638.976c0 81.92 66.56 149.504 149.504 149.504h575.488c23.552 0 43.008-19.456 43.008-43.008v-852.992c0-23.552-19.456-41.984-43.008-41.984zM277.504 832c-34.816 0-64.512-28.672-64.512-64.512v-640c0-34.816 28.672-64.512 64.512-64.512h533.504v768h-533.504z" />
<glyph unicode="&#xe923;" glyph-name="bookmark" d="M811.008 20.992c-9.216 0-17.408 3.072-24.576 8.192l-274.432 195.584-273.408-195.584c-13.312-9.216-29.696-10.24-44.032-3.072s-23.552 21.504-23.552 37.888v683.008c0 70.656 57.344 128 128 128h427.008c70.656 0 128-57.344 128-128v-683.008c0-16.384-9.216-30.72-23.552-37.888-6.144-3.072-13.312-5.12-19.456-5.12zM512 320c8.192 0 17.408-3.072 24.576-8.192l231.424-164.864v600.064c0 23.552-19.456 43.008-43.008 43.008h-425.984c-23.552 0-43.008-19.456-43.008-43.008v-600.064l231.424 164.864c7.168 5.12 16.384 8.192 24.576 8.192z" />
<glyph unicode="&#xe924;" glyph-name="book-open" d="M512 20.992c-23.552 0-43.008 19.456-43.008 43.008 0 47.104-37.888 84.992-84.992 84.992h-299.008c-23.552 0-43.008 19.456-43.008 43.008v640c0 23.552 19.456 43.008 43.008 43.008h256c117.76 0 212.992-95.232 212.992-212.992v-596.992c1.024-24.576-18.432-44.032-41.984-44.032zM128 235.008h256c30.72 0 60.416-8.192 84.992-22.528v448.512c0 70.656-57.344 128-128 128h-212.992v-553.984zM512 20.992c-23.552 0-43.008 19.456-43.008 43.008v596.992c0 117.76 95.232 212.992 212.992 212.992h256c23.552 0 43.008-19.456 43.008-43.008v-638.976c0-23.552-19.456-43.008-43.008-43.008h-297.984c-47.104 0-84.992-37.888-84.992-84.992 0-23.552-19.456-43.008-43.008-43.008zM683.008 788.992c-70.656 0-128-57.344-128-128v-449.536c25.6 14.336 54.272 22.528 84.992 22.528h256v555.008h-212.992z" />
<glyph unicode="&#xe925;" glyph-name="box" d="M512-20.992c-22.528 0-44.032 6.144-64.512 17.408l-297.984 169.984c-39.936 22.528-64.512 65.536-64.512 110.592v342.016c0 46.080 24.576 88.064 64.512 110.592l299.008 171.008c38.912 22.528 88.064 22.528 128 0l299.008-171.008c39.936-22.528 64.512-65.536 64.512-110.592v-340.992c0 0 0 0 0 0 0-45.056-24.576-88.064-64.512-110.592l-300.032-172.032c-19.456-11.264-40.96-16.384-63.488-16.384zM512 832c-7.168 0-14.336-2.048-21.504-6.144l-299.008-169.984c-13.312-7.168-21.504-21.504-21.504-36.864v-340.992c0-15.36 8.192-29.696 21.504-36.864l299.008-171.008c13.312-8.192 29.696-8.192 43.008 0l299.008 171.008c13.312 7.168 21.504 21.504 21.504 36.864v340.992c0 15.36-8.192 29.696-21.504 36.864l-299.008 169.984c-7.168 4.096-14.336 6.144-21.504 6.144zM896 276.992v0 0zM512 404.992c-7.168 0-14.336 2.048-21.504 6.144l-372.736 215.040c-20.48 12.288-27.648 37.888-15.36 58.368s37.888 27.648 58.368 15.36l351.232-202.752 351.232 202.752c20.48 12.288 46.080 5.12 58.368-15.36s5.12-46.080-15.36-58.368l-372.736-215.040c-7.168-4.096-14.336-6.144-21.504-6.144zM512-25.088c-23.552 0-43.008 19.456-43.008 43.008v430.080c0 23.552 19.456 43.008 43.008 43.008s43.008-19.456 43.008-43.008v-430.080c0-23.552-19.456-43.008-43.008-43.008z" />
<glyph unicode="&#xe926;" glyph-name="briefcase" d="M852.992 20.992h-681.984c-70.656 0-128 57.344-128 128v427.008c0 70.656 57.344 128 128 128h683.008c70.656 0 128-57.344 128-128v-427.008c-1.024-70.656-58.368-128-129.024-128zM171.008 619.008c-23.552 0-43.008-19.456-43.008-43.008v-427.008c0-23.552 19.456-43.008 43.008-43.008h683.008c23.552 0 43.008 19.456 43.008 43.008v427.008c0 23.552-19.456 43.008-43.008 43.008h-683.008zM683.008 20.992c-23.552 0-43.008 19.456-43.008 43.008v683.008c0 23.552-19.456 43.008-43.008 43.008h-169.984c-23.552 0-43.008-19.456-43.008-43.008v-683.008c0-23.552-19.456-43.008-43.008-43.008s-43.008 19.456-43.008 43.008v683.008c0 70.656 57.344 128 128 128h171.008c70.656 0 128-57.344 128-128v-683.008c0-23.552-18.432-43.008-41.984-43.008z" />
<glyph unicode="&#xe927;" glyph-name="calendar" d="M811.008-20.992h-598.016c-70.656 0-128 57.344-128 128v596.992c0 70.656 57.344 128 128 128h596.992c70.656 0 128-57.344 128-128v-596.992c1.024-70.656-56.32-128-126.976-128zM212.992 747.008c-23.552 0-43.008-19.456-43.008-43.008v-596.992c0-23.552 19.456-43.008 43.008-43.008h596.992c23.552 0 43.008 19.456 43.008 43.008v596.992c0 23.552-19.456 43.008-43.008 43.008h-596.992zM683.008 660.992c-23.552 0-43.008 19.456-43.008 43.008v171.008c0 23.552 19.456 43.008 43.008 43.008s43.008-19.456 43.008-43.008v-171.008c-1.024-23.552-19.456-43.008-43.008-43.008zM340.992 660.992c-23.552 0-43.008 19.456-43.008 43.008v171.008c0 23.552 19.456 43.008 43.008 43.008s43.008-19.456 43.008-43.008v-171.008c0-23.552-19.456-43.008-43.008-43.008zM896 491.008h-768c-23.552 0-43.008 19.456-43.008 43.008s19.456 43.008 43.008 43.008h768c23.552 0 43.008-19.456 43.008-43.008s-19.456-43.008-43.008-43.008z" />
<glyph unicode="&#xe928;" glyph-name="camera" d="M896 20.992h-768c-70.656 0-128 57.344-128 128v470.016c0 70.656 57.344 128 128 128h147.456l72.704 108.544c8.192 12.288 21.504 19.456 35.84 19.456h256c14.336 0 27.648-7.168 35.84-19.456l72.704-108.544h147.456c70.656 0 128-57.344 128-128v-468.992c0-71.68-57.344-129.024-128-129.024zM128 660.992c-23.552 0-43.008-19.456-43.008-43.008v-468.992c0-23.552 19.456-43.008 43.008-43.008h768c23.552 0 43.008 19.456 43.008 43.008v470.016c0 23.552-19.456 43.008-43.008 43.008h-171.008c-14.336 0-27.648 7.168-35.84 19.456l-72.704 108.544h-209.92l-72.704-108.544c-8.192-12.288-21.504-19.456-35.84-19.456h-169.984zM512 192c-117.76 0-212.992 95.232-212.992 212.992s95.232 212.992 212.992 212.992 212.992-95.232 212.992-212.992c0-117.76-95.232-212.992-212.992-212.992zM512 532.992c-70.656 0-128-57.344-128-128s57.344-128 128-128 128 57.344 128 128-57.344 128-128 128z" />
<glyph unicode="&#xe929;" glyph-name="camera-off" d="M980.992-64c-11.264 0-21.504 4.096-29.696 12.288l-939.008 939.008c-16.384 16.384-16.384 44.032 0 60.416s44.032 16.384 60.416 0l939.008-939.008c16.384-16.384 16.384-44.032 0-60.416-8.192-8.192-19.456-12.288-30.72-12.288zM896 20.992h-768c-70.656 0-128 57.344-128 128v470.016c0 70.656 57.344 128 128 128h128c23.552 0 43.008-19.456 43.008-43.008s-19.456-43.008-43.008-43.008h-128c-23.552 0-43.008-19.456-43.008-43.008v-468.992c0-23.552 19.456-43.008 43.008-43.008h768c23.552 0 43.008-19.456 43.008-43.008s-19.456-41.984-43.008-41.984zM980.992 177.664c-23.552 0-43.008 19.456-43.008 43.008v398.336c0 23.552-19.456 43.008-43.008 43.008h-169.984c-14.336 0-27.648 7.168-35.84 19.456l-72.704 108.544h-232.448c-23.552 0-43.008 19.456-43.008 43.008s19.456 43.008 43.008 43.008h256c14.336 0 27.648-7.168 35.84-19.456l72.704-108.544h147.456c70.656 0 128-57.344 128-128v-398.336c0-25.6-19.456-44.032-43.008-44.032zM510.976 190.976c-41.984 0-82.944 12.288-119.808 36.864-97.28 66.56-121.856 199.68-55.296 296.96 15.36 21.504 33.792 40.96 55.296 55.296 19.456 13.312 46.080 8.192 59.392-11.264s8.192-46.080-11.264-59.392c-13.312-9.216-24.576-20.48-33.792-33.792-39.936-58.368-24.576-138.24 33.792-178.176s138.24-24.576 178.176 33.792c13.312 19.456 39.936 24.576 59.392 11.264s24.576-39.936 11.264-59.392c-41.984-59.392-109.568-92.16-177.152-92.16z" />
<glyph unicode="&#xe92a;" glyph-name="cast" d="M251.904 64c-19.456 0-37.888 14.336-41.984 33.792-13.312 67.584-65.536 119.808-133.12 133.12-23.552 5.12-37.888 27.648-33.792 50.176 5.12 23.552 27.648 38.912 51.2 33.792 100.352-20.48 179.2-99.328 199.68-199.68 5.12-23.552-10.24-46.080-33.792-50.176-3.072-1.024-5.12-1.024-8.192-1.024zM424.96 64c-21.504 0-39.936 16.384-41.984 37.888-18.432 159.744-142.336 283.648-302.080 302.080-23.552 3.072-39.936 23.552-37.888 47.104 3.072 23.552 23.552 39.936 47.104 37.888 199.68-22.528 354.304-177.152 376.832-376.832 3.072-23.552-14.336-44.032-37.888-47.104-1.024-1.024-3.072-1.024-4.096-1.024zM852.992 64h-256c-23.552 0-43.008 19.456-43.008 43.008s19.456 43.008 43.008 43.008h256c23.552 0 43.008 19.456 43.008 43.008v510.976c0 23.552-19.456 43.008-43.008 43.008h-681.984c-23.552 0-43.008-19.456-43.008-43.008v-84.992c0-23.552-19.456-43.008-43.008-43.008s-43.008 19.456-43.008 43.008v84.992c0 70.656 57.344 128 128 128h683.008c70.656 0 128-57.344 128-128v-512c0-70.656-57.344-128-128-128zM86.016 64c-23.552 0-43.008 19.456-43.008 43.008s18.432 43.008 41.984 43.008v0c23.552 0 43.008-19.456 43.008-43.008s-18.432-43.008-41.984-43.008z" />
<glyph unicode="&#xe92b;" glyph-name="check" d="M384 192c-11.264 0-21.504 4.096-29.696 12.288l-214.016 214.016c-16.384 16.384-16.384 44.032 0 60.416s44.032 16.384 60.416 0l183.296-183.296 439.296 439.296c16.384 16.384 44.032 16.384 60.416 0s16.384-44.032 0-60.416l-470.016-470.016c-8.192-8.192-18.432-12.288-29.696-12.288z" />
<glyph unicode="&#xe92c;" glyph-name="check-circle" d="M512-20.992c0 0 0 0 0 0-125.952 0-243.712 49.152-331.776 137.216-89.088 89.088-137.216 206.848-137.216 332.8 0 124.928 49.152 242.688 137.216 331.776 89.088 88.064 206.848 137.216 331.776 137.216 0 0 0 0 0 0 66.56 0 130.048-13.312 190.464-40.96 21.504-9.216 30.72-34.816 21.504-56.32s-34.816-30.72-56.32-21.504c-49.152 22.528-102.4 32.768-155.648 32.768 0 0 0 0 0 0-102.4 0-198.656-39.936-271.36-112.64s-112.64-168.96-112.64-271.36c0-102.4 39.936-198.656 112.64-271.36s168.96-112.64 271.36-112.64c0 0 0 0 0 0 211.968 0 384 172.032 384 384v38.912c0 23.552 19.456 43.008 43.008 43.008s43.008-19.456 43.008-43.008v-38.912c-1.024-259.072-210.944-468.992-470.016-468.992zM512 320c-11.264 0-22.528 4.096-29.696 12.288l-128 128c-16.384 16.384-16.384 44.032 0 60.416s44.032 16.384 60.416 0l98.304-98.304 396.288 397.312c16.384 16.384 44.032 16.384 60.416 0s16.384-44.032 0-60.416l-428.032-427.008c-7.168-8.192-18.432-12.288-29.696-12.288 0 0 0 0 0 0z" />
<glyph unicode="&#xe92d;" glyph-name="check-square" d="M512 320c-11.264 0-21.504 4.096-29.696 12.288l-128 128c-16.384 16.384-16.384 44.032 0 60.416s44.032 16.384 60.416 0l98.304-98.304 396.288 396.288c16.384 16.384 44.032 16.384 60.416 0s16.384-44.032 0-60.416l-428.032-425.984c-8.192-8.192-18.432-12.288-29.696-12.288zM811.008 20.992h-598.016c-70.656 0-128 57.344-128 128v598.016c0 70.656 57.344 128 128 128h468.992c23.552 0 43.008-19.456 43.008-43.008s-19.456-43.008-43.008-43.008h-468.992c-23.552 0-43.008-19.456-43.008-43.008v-596.992c0-23.552 19.456-43.008 43.008-43.008h596.992c23.552 0 43.008 19.456 43.008 43.008v299.008c0 23.552 19.456 43.008 43.008 43.008s43.008-19.456 43.008-43.008v-299.008c0-70.656-57.344-128-128-128z" />
<glyph unicode="&#xe92e;" glyph-name="chevron-down" d="M512 276.992c-11.264 0-21.504 4.096-29.696 12.288l-256 256c-16.384 16.384-16.384 44.032 0 60.416s44.032 16.384 60.416 0l225.28-225.28 226.304 226.304c16.384 16.384 44.032 16.384 60.416 0s16.384-44.032 0-60.416l-256-256c-9.216-9.216-19.456-13.312-30.72-13.312z" />
<glyph unicode="&#xe92f;" glyph-name="chevron-left" d="M640 148.992c-11.264 0-21.504 4.096-29.696 12.288l-256 256c-16.384 16.384-16.384 44.032 0 60.416l256 256c16.384 16.384 44.032 16.384 60.416 0s16.384-44.032 0-60.416l-226.304-225.28 226.304-226.304c16.384-16.384 16.384-44.032 0-60.416-9.216-8.192-19.456-12.288-30.72-12.288z" />
<glyph unicode="&#xe930;" glyph-name="chevron-right" d="M384 148.992c-11.264 0-21.504 4.096-29.696 12.288-16.384 16.384-16.384 44.032 0 60.416l225.28 226.304-225.28 226.304c-16.384 16.384-16.384 44.032 0 60.416s44.032 16.384 60.416 0l256-256c16.384-16.384 16.384-44.032 0-60.416l-256-256c-9.216-9.216-19.456-13.312-30.72-13.312z" />
<glyph unicode="&#xe931;" glyph-name="chevrons-down" d="M512 148.992c-11.264 0-21.504 4.096-29.696 12.288l-214.016 214.016c-16.384 16.384-16.384 44.032 0 60.416s44.032 16.384 60.416 0l183.296-183.296 183.296 183.296c16.384 16.384 44.032 16.384 60.416 0s16.384-44.032 0-60.416l-214.016-212.992c-8.192-9.216-18.432-13.312-29.696-13.312zM512 448c-11.264 0-21.504 4.096-29.696 12.288l-214.016 214.016c-16.384 16.384-16.384 44.032 0 60.416s44.032 16.384 60.416 0l183.296-183.296 183.296 183.296c16.384 16.384 44.032 16.384 60.416 0s16.384-44.032 0-60.416l-214.016-214.016c-8.192-8.192-18.432-12.288-29.696-12.288z" />
<glyph unicode="&#xe932;" glyph-name="chevrons-left" d="M468.992 192c-11.264 0-21.504 4.096-29.696 12.288l-212.992 214.016c-8.192 8.192-12.288 18.432-12.288 29.696s4.096 22.528 12.288 29.696l212.992 212.992c16.384 16.384 44.032 16.384 60.416 0s16.384-44.032 0-60.416l-183.296-182.272 183.296-183.296c16.384-16.384 16.384-44.032 0-60.416-8.192-8.192-19.456-12.288-30.72-12.288zM768 192c-11.264 0-21.504 4.096-29.696 12.288l-214.016 214.016c-16.384 16.384-16.384 44.032 0 60.416l212.992 212.992c16.384 16.384 44.032 16.384 60.416 0s16.384-44.032 0-60.416l-182.272-183.296 183.296-183.296c16.384-16.384 16.384-44.032 0-60.416-9.216-8.192-19.456-12.288-30.72-12.288z" />
<glyph unicode="&#xe933;" glyph-name="chevrons-right" d="M555.008 192c-11.264 0-21.504 4.096-29.696 12.288-16.384 16.384-16.384 44.032 0 60.416l182.272 183.296-183.296 183.296c-16.384 16.384-16.384 44.032 0 60.416s44.032 16.384 60.416 0l212.992-212.992c16.384-16.384 16.384-44.032 0-60.416l-212.992-214.016c-8.192-8.192-19.456-12.288-29.696-12.288zM256 192c-11.264 0-21.504 4.096-29.696 12.288-16.384 16.384-16.384 44.032 0 60.416l182.272 183.296-182.272 183.296c-16.384 16.384-16.384 44.032 0 60.416s44.032 16.384 60.416 0l212.992-212.992c8.192-8.192 12.288-18.432 12.288-29.696s-4.096-22.528-12.288-29.696l-214.016-215.040c-8.192-8.192-18.432-12.288-29.696-12.288z" />
<glyph unicode="&#xe934;" glyph-name="chevrons-up" d="M724.992 448c-11.264 0-21.504 4.096-29.696 12.288l-183.296 183.296-183.296-183.296c-16.384-16.384-44.032-16.384-60.416 0s-16.384 44.032 0 60.416l212.992 212.992c16.384 16.384 44.032 16.384 60.416 0l212.992-212.992c16.384-16.384 16.384-44.032 0-60.416-7.168-8.192-18.432-12.288-29.696-12.288zM724.992 148.992c-11.264 0-21.504 4.096-29.696 12.288l-183.296 183.296-183.296-182.272c-16.384-16.384-44.032-16.384-60.416 0s-16.384 44.032 0 60.416l212.992 212.992c16.384 16.384 44.032 16.384 60.416 0l212.992-212.992c16.384-16.384 16.384-44.032 0-60.416-7.168-9.216-18.432-13.312-29.696-13.312z" />
<glyph unicode="&#xe935;" glyph-name="chevron-up" d="M768 276.992c-11.264 0-21.504 4.096-29.696 12.288l-226.304 226.304-226.304-225.28c-16.384-16.384-44.032-16.384-60.416 0s-16.384 44.032 0 60.416l256 256c16.384 16.384 44.032 16.384 60.416 0l256-256c16.384-16.384 16.384-44.032 0-60.416-8.192-9.216-18.432-13.312-29.696-13.312z" />
<glyph unicode="&#xe936;" glyph-name="chrome" d="M512-20.992c-259.072 0-468.992 209.92-468.992 468.992s209.92 468.992 468.992 468.992 468.992-209.92 468.992-468.992c0-259.072-209.92-468.992-468.992-468.992zM512 832c-211.968 0-384-172.032-384-384s172.032-384 384-384c211.968 0 384 172.032 384 384s-172.032 384-384 384zM512 235.008c-117.76 0-212.992 95.232-212.992 212.992s95.232 212.992 212.992 212.992 212.992-95.232 212.992-212.992c0-117.76-95.232-212.992-212.992-212.992zM512 576c-70.656 0-128-57.344-128-128s57.344-128 128-128 128 57.344 128 128-57.344 128-128 128zM903.168 576h-391.168c-23.552 0-43.008 19.456-43.008 43.008s19.456 43.008 43.008 43.008h391.168c23.552 0 43.008-19.456 43.008-43.008s-19.456-43.008-43.008-43.008zM364.544 320c-14.336 0-28.672 7.168-36.864 21.504l-195.584 338.944c-12.288 20.48-5.12 46.080 15.36 58.368s46.080 5.12 58.368-15.36l195.584-338.944c12.288-20.48 5.12-46.080-15.36-58.368-7.168-4.096-14.336-6.144-21.504-6.144zM463.872-18.944c-7.168 0-14.336 2.048-21.504 6.144-20.48 12.288-27.648 37.888-15.36 58.368l195.584 338.944c11.264 20.48 37.888 27.648 58.368 15.36s27.648-37.888 15.36-58.368l-195.584-338.944c-7.168-13.312-21.504-21.504-36.864-21.504z" />
<glyph unicode="&#xe937;" glyph-name="circle" d="M512-20.992c-259.072 0-468.992 209.92-468.992 468.992s209.92 468.992 468.992 468.992 468.992-209.92 468.992-468.992c0-259.072-209.92-468.992-468.992-468.992zM512 832c-211.968 0-384-172.032-384-384s172.032-384 384-384c211.968 0 384 172.032 384 384s-172.032 384-384 384z" />
<glyph unicode="&#xe938;" glyph-name="clipboard" d="M768-20.992h-512c-70.656 0-128 57.344-128 128v596.992c0 70.656 57.344 128 128 128h84.992c23.552 0 43.008-19.456 43.008-43.008s-19.456-43.008-43.008-43.008h-84.992c-23.552 0-43.008-19.456-43.008-43.008v-596.992c0-23.552 19.456-43.008 43.008-43.008h512c23.552 0 43.008 19.456 43.008 43.008v598.016c0 23.552-19.456 43.008-43.008 43.008h-84.992c-23.552 0-43.008 19.456-43.008 43.008s19.456 43.008 43.008 43.008h84.992c70.656 0 128-57.344 128-128v-596.992c0-71.68-57.344-129.024-128-129.024zM640 660.992h-256c-47.104 0-84.992 37.888-84.992 84.992v84.992c0 47.104 37.888 84.992 84.992 84.992h256c47.104 0 84.992-37.888 84.992-84.992v-84.992c0-46.080-37.888-84.992-84.992-84.992zM384 832v0-84.992h256v84.992h-256z" />
<glyph unicode="&#xe939;" glyph-name="clock" d="M512-20.992c-259.072 0-468.992 209.92-468.992 468.992s209.92 468.992 468.992 468.992 468.992-209.92 468.992-468.992c0-259.072-209.92-468.992-468.992-468.992zM512 832c-211.968 0-384-172.032-384-384s172.032-384 384-384c211.968 0 384 172.032 384 384s-172.032 384-384 384zM683.008 320c-6.144 0-13.312 1.024-19.456 4.096l-171.008 84.992c-14.336 7.168-23.552 21.504-23.552 37.888v257.024c0 23.552 19.456 43.008 43.008 43.008s43.008-19.456 43.008-43.008v-229.376l147.456-73.728c21.504-10.24 29.696-35.84 19.456-57.344-8.192-15.36-23.552-23.552-38.912-23.552z" />
<glyph unicode="&#xe93a;" glyph-name="cloud" d="M384 64c-175.104 0-327.68 118.784-371.712 287.744-53.248 204.8 70.656 414.72 275.456 467.968 194.56 50.176 392.192-58.368 457.728-243.712h22.528c141.312 0 256-114.688 256-256s-114.688-256-256-256h-384c0 0 0 0 0 0zM384 747.008c-24.576 0-50.176-3.072-74.752-9.216-159.744-40.96-256-204.8-214.016-363.52 33.792-132.096 152.576-224.256 288.768-224.256 0 0 0 0 0 0h384c94.208 0 171.008 76.8 171.008 171.008s-76.8 171.008-171.008 171.008h-54.272c-19.456 0-36.864 13.312-40.96 31.744-34.816 133.12-155.648 223.232-288.768 223.232z" />
<glyph unicode="&#xe93b;" glyph-name="cloud-drizzle" d="M340.992 20.992c-23.552 0-43.008 19.456-43.008 43.008v84.992c0 23.552 19.456 43.008 43.008 43.008s43.008-19.456 43.008-43.008v-84.992c0-23.552-19.456-43.008-43.008-43.008zM340.992 276.992c-23.552 0-43.008 19.456-43.008 43.008v84.992c0 23.552 19.456 43.008 43.008 43.008s43.008-19.456 43.008-43.008v-84.992c0-23.552-19.456-43.008-43.008-43.008zM683.008 20.992c-23.552 0-43.008 19.456-43.008 43.008v84.992c0 23.552 19.456 43.008 43.008 43.008s43.008-19.456 43.008-43.008v-84.992c-1.024-23.552-19.456-43.008-43.008-43.008zM683.008 276.992c-23.552 0-43.008 19.456-43.008 43.008v84.992c0 23.552 19.456 43.008 43.008 43.008s43.008-19.456 43.008-43.008v-84.992c-1.024-23.552-19.456-43.008-43.008-43.008zM512-64c-23.552 0-43.008 19.456-43.008 43.008v84.992c0 23.552 19.456 43.008 43.008 43.008s43.008-19.456 43.008-43.008v-84.992c0-23.552-19.456-43.008-43.008-43.008zM512 192c-23.552 0-43.008 19.456-43.008 43.008v84.992c0 23.552 19.456 43.008 43.008 43.008s43.008-19.456 43.008-43.008v-84.992c0-23.552-19.456-43.008-43.008-43.008zM852.992 209.408c-16.384 0-31.744 9.216-38.912 25.6-9.216 21.504 0 47.104 21.504 56.32 41.984 18.432 73.728 52.224 90.112 94.208s15.36 89.088-3.072 131.072c-27.648 62.464-88.064 102.4-155.648 102.4h-53.248c-19.456 0-36.864 13.312-40.96 31.744-40.96 159.744-204.8 256-363.52 214.016-159.744-40.96-256-204.8-214.016-363.52 16.384-62.464 52.224-118.784 102.4-158.72 18.432-14.336 21.504-41.984 7.168-60.416s-41.984-21.504-60.416-7.168c-64.512 51.2-111.616 123.904-132.096 203.776-25.6 99.328-11.264 202.752 40.96 290.816 52.224 90.112 135.168 152.576 234.496 178.176 194.56 50.176 392.192-58.368 457.728-243.712h22.528c101.376 0 193.536-60.416 234.496-153.6 27.648-62.464 28.672-132.096 4.096-195.584s-72.704-113.664-136.192-141.312c-5.12-2.048-11.264-4.096-17.408-4.096z" />
<glyph unicode="&#xe93c;" glyph-name="cloud-lightning" d="M811.008 196.096c-19.456 0-37.888 14.336-41.984 33.792-5.12 23.552 10.24 46.080 33.792 50.176 92.16 18.432 151.552 108.544 133.12 201.728-16.384 78.848-86.016 137.216-166.912 137.216 0 0 0 0 0 0h-54.272c-19.456 0-36.864 13.312-40.96 31.744-19.456 76.8-68.608 142.336-137.216 182.272-68.608 40.96-149.504 52.224-226.304 31.744-159.744-40.96-256-204.8-214.016-363.52 20.48-78.848 72.704-147.456 144.384-186.368 20.48-11.264 27.648-37.888 16.384-58.368s-36.864-27.648-58.368-16.384c-92.16 51.2-159.744 138.24-185.344 239.616-54.272 204.8 69.632 414.72 274.432 467.968 99.328 25.6 202.752 11.264 290.816-40.96 78.848-46.080 137.216-117.76 166.912-202.752h22.528c0 0 0 0 0 0 120.832 0 226.304-86.016 250.88-204.8 27.648-138.24-61.44-273.408-199.68-302.080-3.072-1.024-6.144-1.024-8.192-1.024zM468.992-64c-8.192 0-16.384 2.048-23.552 7.168-19.456 13.312-24.576 39.936-12.288 59.392l126.976 189.44h-176.128c-15.36 0-29.696 8.192-37.888 22.528-7.168 14.336-6.144 30.72 2.048 44.032l171.008 256c13.312 19.456 39.936 24.576 59.392 12.288 19.456-13.312 24.576-39.936 12.288-59.392l-126.976-190.464h176.128c15.36 0 29.696-8.192 37.888-22.528 7.168-14.336 6.144-30.72-2.048-44.032l-171.008-256c-8.192-11.264-21.504-18.432-35.84-18.432z" />
<glyph unicode="&#xe93d;" glyph-name="cloud-off" d="M377.856 64c-139.264 0-267.264 75.776-334.848 198.656-49.152 90.112-61.44 193.536-32.768 291.84 27.648 98.304 93.184 180.224 182.272 229.376 20.48 11.264 46.080 4.096 58.368-16.384 11.264-20.48 4.096-46.080-16.384-58.368-144.384-79.872-196.608-261.12-117.76-405.504 53.248-97.28 155.648-156.672 266.24-153.6h385.024c19.456 0 38.912 3.072 58.368 10.24 22.528 8.192 47.104-3.072 54.272-25.6 8.192-22.528-3.072-47.104-25.6-54.272-27.648-10.24-57.344-15.36-87.040-15.36h-384c-2.048-1.024-4.096-1.024-6.144-1.024zM964.608 194.048c-5.12 0-11.264 1.024-16.384 3.072-21.504 9.216-31.744 33.792-22.528 56.32 36.864 87.040-4.096 187.392-90.112 223.232-21.504 9.216-44.032 13.312-66.56 13.312 0 0 0 0 0 0h-54.272c-19.456 0-36.864 13.312-40.96 31.744-30.72 122.88-137.216 212.992-263.168 224.256-23.552 2.048-40.96 22.528-38.912 46.080s22.528 40.96 46.080 38.912c151.552-13.312 279.552-114.688 328.704-256h21.504c0 0 0 0 0 0 34.816 0 67.584-7.168 99.328-20.48 130.048-55.296 190.464-205.824 136.192-335.872-6.144-14.336-22.528-24.576-38.912-24.576zM980.992-64c-11.264 0-21.504 4.096-29.696 12.288l-939.008 939.008c-16.384 16.384-16.384 44.032 0 60.416s44.032 16.384 60.416 0l939.008-939.008c16.384-16.384 16.384-44.032 0-60.416-8.192-8.192-19.456-12.288-30.72-12.288z" />
<glyph unicode="&#xe93e;" glyph-name="cloud-rain" d="M683.008 20.992c-23.552 0-43.008 19.456-43.008 43.008v340.992c0 23.552 19.456 43.008 43.008 43.008s43.008-19.456 43.008-43.008v-340.992c-1.024-23.552-19.456-43.008-43.008-43.008zM340.992 20.992c-23.552 0-43.008 19.456-43.008 43.008v340.992c0 23.552 19.456 43.008 43.008 43.008s43.008-19.456 43.008-43.008v-340.992c0-23.552-19.456-43.008-43.008-43.008zM512-64c-23.552 0-43.008 19.456-43.008 43.008v340.992c0 23.552 19.456 43.008 43.008 43.008s43.008-19.456 43.008-43.008v-340.992c0-23.552-19.456-43.008-43.008-43.008zM852.992 209.408c-16.384 0-31.744 9.216-38.912 25.6-9.216 21.504 0 47.104 21.504 56.32 41.984 18.432 73.728 52.224 90.112 94.208s15.36 89.088-3.072 131.072c-27.648 62.464-88.064 102.4-155.648 102.4h-53.248c-19.456 0-36.864 13.312-40.96 31.744-40.96 159.744-204.8 256-363.52 214.016-159.744-40.96-256-204.8-214.016-363.52 16.384-62.464 52.224-118.784 102.4-158.72 18.432-14.336 21.504-41.984 7.168-60.416s-41.984-21.504-60.416-7.168c-64.512 51.2-111.616 123.904-132.096 203.776-25.6 99.328-11.264 202.752 40.96 290.816 52.224 90.112 135.168 152.576 234.496 178.176 194.56 50.176 392.192-58.368 457.728-243.712h22.528c101.376 0 193.536-60.416 234.496-153.6 27.648-62.464 28.672-132.096 4.096-195.584s-72.704-113.664-136.192-141.312c-5.12-2.048-11.264-4.096-17.408-4.096z" />
<glyph unicode="&#xe93f;" glyph-name="cloud-snow" d="M852.992 167.424c-16.384 0-31.744 9.216-38.912 25.6-9.216 21.504 0 47.104 21.504 56.32 41.984 18.432 73.728 52.224 90.112 94.208s15.36 89.088-3.072 131.072c-27.648 62.464-88.064 102.4-155.648 102.4h-53.248c-19.456 0-36.864 13.312-40.96 31.744-40.96 159.744-204.8 256-363.52 214.016-159.744-40.96-256-204.8-214.016-363.52 16.384-62.464 52.224-118.784 102.4-158.72 18.432-14.336 21.504-41.984 7.168-60.416s-41.984-21.504-60.416-7.168c-64.512 52.224-111.616 123.904-132.096 204.8-25.6 99.328-11.264 202.752 40.96 290.816s135.168 150.528 234.496 176.128c194.56 50.176 392.192-58.368 457.728-243.712h22.528c101.376 0 193.536-60.416 234.496-153.6 27.648-62.464 28.672-132.096 4.096-195.584s-72.704-113.664-136.192-141.312c-5.12-2.048-11.264-3.072-17.408-3.072zM342.016 235.008c-23.552 0-43.008 19.456-43.008 43.008s18.432 43.008 41.984 43.008v0c23.552 0 43.008-19.456 43.008-43.008s-18.432-43.008-41.984-43.008zM342.016 64c-23.552 0-43.008 19.456-43.008 43.008s18.432 43.008 41.984 43.008v0c23.552 0 43.008-19.456 43.008-43.008s-18.432-43.008-41.984-43.008zM512 148.992c-23.552 0-43.008 19.456-43.008 43.008s18.432 43.008 41.984 43.008v0c23.552 0 43.008-19.456 43.008-43.008s-18.432-43.008-41.984-43.008zM512-20.992c-23.552 0-43.008 19.456-43.008 43.008s18.432 43.008 41.984 43.008v0c23.552 0 43.008-19.456 43.008-43.008s-18.432-43.008-41.984-43.008zM683.008 235.008c-23.552 0-43.008 19.456-43.008 43.008s18.432 43.008 41.984 43.008v0c23.552 0 43.008-19.456 43.008-43.008s-18.432-43.008-41.984-43.008zM683.008 64c-23.552 0-43.008 19.456-43.008 43.008s18.432 43.008 41.984 43.008v0c23.552 0 43.008-19.456 43.008-43.008s-18.432-43.008-41.984-43.008z" />
<glyph unicode="&#xe940;" glyph-name="code" d="M683.008 148.992c-11.264 0-21.504 4.096-29.696 12.288-16.384 16.384-16.384 44.032 0 60.416l225.28 226.304-226.304 226.304c-16.384 16.384-16.384 44.032 0 60.416s44.032 16.384 60.416 0l256-256c16.384-16.384 16.384-44.032 0-60.416l-256-256c-8.192-9.216-19.456-13.312-29.696-13.312zM340.992 148.992c-11.264 0-21.504 4.096-29.696 12.288l-256 256c-16.384 16.384-16.384 44.032 0 60.416l256 256c16.384 16.384 44.032 16.384 60.416 0s16.384-44.032 0-60.416l-226.304-225.28 226.304-226.304c16.384-16.384 16.384-44.032 0-60.416-8.192-8.192-19.456-12.288-30.72-12.288z" />
<glyph unicode="&#xe941;" glyph-name="codepen" d="M512-20.992c-8.192 0-16.384 2.048-23.552 7.168l-425.984 276.48c-12.288 8.192-19.456 21.504-19.456 35.84v299.008c0 14.336 7.168 27.648 19.456 35.84l425.984 277.504c14.336 9.216 32.768 9.216 46.080 0l427.008-277.504c12.288-8.192 19.456-21.504 19.456-35.84v-299.008c0-14.336-7.168-27.648-19.456-35.84l-425.984-277.504c-7.168-4.096-15.36-6.144-23.552-6.144zM128 322.048l384-249.856 384 249.856v251.904l-384 249.856-384-249.856v-251.904zM512-20.992c-23.552 0-43.008 19.456-43.008 43.008v276.48c0 23.552 19.456 43.008 43.008 43.008s43.008-19.456 43.008-43.008v-277.504c0-23.552-19.456-41.984-43.008-41.984zM512 255.488c-8.192 0-17.408 3.072-24.576 8.192l-427.008 299.008c-19.456 13.312-23.552 39.936-10.24 59.392s39.936 23.552 59.392 10.24l402.432-281.6 402.432 281.6c19.456 13.312 46.080 9.216 59.392-10.24s9.216-46.080-10.24-59.392l-427.008-299.008c-7.168-5.12-16.384-8.192-24.576-8.192zM939.008 255.488c-8.192 0-17.408 2.048-24.576 8.192l-402.432 281.6-402.432-281.6c-19.456-13.312-46.080-9.216-59.392 10.24s-9.216 46.080 10.24 59.392l427.008 299.008c14.336 10.24 33.792 10.24 49.152 0l427.008-299.008c19.456-13.312 23.552-39.936 10.24-59.392-8.192-11.264-21.504-18.432-34.816-18.432zM512 554.496c-23.552 0-43.008 19.456-43.008 43.008v277.504c0 23.552 19.456 43.008 43.008 43.008s43.008-19.456 43.008-43.008v-277.504c0-23.552-19.456-43.008-43.008-43.008z" />
<glyph unicode="&#xe942;" glyph-name="codesandbox" d="M512-20.992c-22.528 0-44.032 6.144-64.512 17.408l-297.984 169.984c-39.936 22.528-64.512 65.536-64.512 110.592v342.016c0 46.080 24.576 88.064 64.512 110.592l299.008 171.008c38.912 22.528 88.064 22.528 128 0l299.008-171.008c39.936-22.528 64.512-65.536 64.512-110.592v-340.992c0 0 0 0 0 0 0-45.056-24.576-88.064-64.512-110.592l-300.032-172.032c-19.456-11.264-40.96-16.384-63.488-16.384zM512 832c-7.168 0-14.336-2.048-21.504-6.144l-299.008-169.984c-13.312-7.168-21.504-21.504-21.504-36.864v-340.992c0-15.36 8.192-29.696 21.504-36.864l299.008-171.008c13.312-8.192 29.696-8.192 43.008 0l299.008 171.008c13.312 7.168 21.504 21.504 21.504 36.864v340.992c0 15.36-8.192 29.696-21.504 36.864l-299.008 169.984c-7.168 4.096-14.336 6.144-21.504 6.144zM896 276.992v0 0zM512 627.2c-7.168 0-14.336 2.048-21.504 6.144l-191.488 110.592c-20.48 12.288-27.648 37.888-15.36 58.368s37.888 27.648 58.368 15.36l169.984-99.328 171.008 98.304c20.48 11.264 46.080 5.12 58.368-15.36s5.12-46.080-15.36-58.368l-192.512-110.592c-7.168-4.096-14.336-5.12-21.504-5.12zM320.512 73.216c-23.552 0-43.008 19.456-43.008 43.008v196.608l-171.008 98.304c-20.48 12.288-27.648 37.888-15.36 58.368s37.888 27.648 58.368 15.36l192.512-110.592c13.312-7.168 21.504-21.504 21.504-36.864v-221.184c-1.024-24.576-19.456-43.008-43.008-43.008zM704.512 73.216c-23.552 0-43.008 19.456-43.008 43.008v221.184c0 15.36 8.192 29.696 21.504 36.864l192.512 110.592c20.48 12.288 46.080 5.12 58.368-15.36s5.12-46.080-15.36-58.368l-171.008-98.304v-196.608c-1.024-24.576-19.456-43.008-43.008-43.008zM512 404.992c-7.168 0-14.336 2.048-21.504 6.144l-372.736 215.040c-20.48 12.288-27.648 37.888-15.36 58.368s37.888 27.648 58.368 15.36l351.232-202.752 351.232 202.752c20.48 12.288 46.080 5.12 58.368-15.36s5.12-46.080-15.36-58.368l-372.736-215.040c-7.168-4.096-14.336-6.144-21.504-6.144zM512-25.088c-23.552 0-43.008 19.456-43.008 43.008v430.080c0 23.552 19.456 43.008 43.008 43.008s43.008-19.456 43.008-43.008v-430.080c0-23.552-19.456-43.008-43.008-43.008z" />
<glyph unicode="&#xe943;" glyph-name="coffee" d="M811.008 235.008h-43.008c-23.552 0-43.008 19.456-43.008 43.008s19.456 43.008 43.008 43.008h43.008c70.656 0 128 57.344 128 128s-57.344 128-128 128h-43.008c-23.552 0-43.008 19.456-43.008 43.008s19.456 43.008 43.008 43.008h43.008c117.76 0 212.992-95.232 212.992-212.992 0-119.808-95.232-215.040-212.992-215.040zM596.992 20.992h-340.992c-117.76 0-212.992 95.232-212.992 212.992v385.024c0 23.552 19.456 43.008 43.008 43.008h681.984c23.552 0 43.008-19.456 43.008-43.008v-384c0-117.76-96.256-214.016-214.016-214.016zM128 576v-340.992c0-70.656 57.344-128 128-128h340.992c70.656 0 128 57.344 128 128v340.992h-596.992zM256 747.008c-23.552 0-43.008 19.456-43.008 43.008v126.976c0 23.552 19.456 43.008 43.008 43.008s43.008-19.456 43.008-43.008v-128c0-23.552-19.456-41.984-43.008-41.984zM427.008 747.008c-23.552 0-43.008 19.456-43.008 43.008v126.976c0 23.552 19.456 43.008 43.008 43.008s43.008-19.456 43.008-43.008v-128c-1.024-23.552-19.456-41.984-43.008-41.984zM596.992 747.008c-23.552 0-43.008 19.456-43.008 43.008v126.976c1.024 23.552 19.456 43.008 43.008 43.008s43.008-19.456 43.008-43.008v-128c0-23.552-19.456-41.984-43.008-41.984z" />
<glyph unicode="&#xe944;" glyph-name="columns" d="M811.008 20.992h-598.016c-70.656 0-128 57.344-128 128v598.016c0 70.656 57.344 128 128 128h596.992c70.656 0 128-57.344 128-128v-596.992c1.024-71.68-56.32-129.024-126.976-129.024zM555.008 107.008h256c23.552 0 43.008 19.456 43.008 43.008v596.992c0 23.552-19.456 43.008-43.008 43.008h-256v-683.008zM212.992 788.992c-23.552 0-43.008-19.456-43.008-43.008v-596.992c0-23.552 19.456-43.008 43.008-43.008h256v683.008h-256z" />
<glyph unicode="&#xe945;" glyph-name="command" d="M768 20.992c-94.208 0-171.008 76.8-171.008 171.008v84.992h-169.984v-84.992c0-94.208-76.8-171.008-171.008-171.008s-171.008 76.8-171.008 171.008 76.8 171.008 171.008 171.008h84.992v169.984h-84.992c-94.208 0-171.008 76.8-171.008 171.008s76.8 171.008 171.008 171.008 171.008-76.8 171.008-171.008v-84.992h171.008v84.992c0 94.208 76.8 171.008 171.008 171.008s169.984-76.8 169.984-171.008-76.8-171.008-171.008-171.008h-84.992v-171.008h84.992c94.208 0 171.008-76.8 171.008-171.008s-76.8-169.984-171.008-169.984zM683.008 276.992v-84.992c0-47.104 37.888-84.992 84.992-84.992s84.992 37.888 84.992 84.992-37.888 84.992-84.992 84.992h-84.992zM256 276.992c-47.104 0-84.992-37.888-84.992-84.992s37.888-84.992 84.992-84.992 84.992 37.888 84.992 84.992v84.992h-84.992zM427.008 363.008h171.008v169.984h-171.008v-169.984zM683.008 619.008h84.992c47.104 0 84.992 37.888 84.992 84.992s-37.888 84.992-84.992 84.992-84.992-37.888-84.992-84.992v-84.992zM256 788.992c-47.104 0-84.992-37.888-84.992-84.992s37.888-84.992 84.992-84.992h84.992v84.992c0 47.104-37.888 84.992-84.992 84.992z" />
<glyph unicode="&#xe946;" glyph-name="compass" d="M512-20.992c-259.072 0-468.992 209.92-468.992 468.992s209.92 468.992 468.992 468.992 468.992-209.92 468.992-468.992c0-259.072-209.92-468.992-468.992-468.992zM512 832c-211.968 0-384-172.032-384-384s172.032-384 384-384c211.968 0 384 172.032 384 384s-172.032 384-384 384zM330.752 224.768c-11.264 0-22.528 4.096-29.696 12.288-11.264 11.264-15.36 28.672-10.24 44.032l90.112 271.36c4.096 12.288 14.336 22.528 26.624 26.624l271.36 90.112c15.36 5.12 31.744 1.024 44.032-10.24 11.264-11.264 15.36-28.672 10.24-44.032l-90.112-271.36c-4.096-12.288-14.336-22.528-26.624-26.624l-271.36-90.112c-5.12-2.048-9.216-2.048-14.336-2.048zM455.68 504.32l-56.32-169.984 169.984 56.32 56.32 169.984-169.984-56.32z" />
<glyph unicode="&#xe947;" glyph-name="copy" d="M852.992-20.992h-384c-70.656 0-128 57.344-128 128v384c0 70.656 57.344 128 128 128h384c70.656 0 128-57.344 128-128v-384c0-70.656-57.344-128-128-128zM468.992 532.992c-23.552 0-43.008-19.456-43.008-43.008v-384c0-23.552 19.456-43.008 43.008-43.008h384c23.552 0 43.008 19.456 43.008 43.008v385.024c0 23.552-19.456 43.008-43.008 43.008h-384zM212.992 276.992h-43.008c-70.656 0-128 57.344-128 128v384c0 70.656 57.344 128 128 128h384c70.656 0 128-57.344 128-128v-43.008c0-23.552-19.456-43.008-43.008-43.008s-43.008 19.456-43.008 43.008v43.008c0 23.552-19.456 43.008-43.008 43.008h-381.952c-23.552 0-43.008-19.456-43.008-43.008v-384c0-23.552 19.456-43.008 43.008-43.008h43.008c23.552 0 43.008-19.456 43.008-43.008s-20.48-41.984-44.032-41.984z" />
<glyph unicode="&#xe948;" glyph-name="corner-down-left" d="M384 64c-11.264 0-21.504 4.096-29.696 12.288l-214.016 214.016c-8.192 8.192-12.288 18.432-12.288 29.696s4.096 22.528 12.288 29.696l212.992 212.992c16.384 16.384 44.032 16.384 60.416 0s16.384-44.032 0-60.416l-182.272-182.272 183.296-183.296c16.384-16.384 16.384-44.032 0-60.416-9.216-8.192-19.456-12.288-30.72-12.288zM683.008 276.992h-512c-23.552 0-43.008 19.456-43.008 43.008s19.456 43.008 43.008 43.008h512c70.656 0 128 57.344 128 128v297.984c0 23.552 19.456 43.008 43.008 43.008s43.008-19.456 43.008-43.008v-299.008c-1.024-116.736-96.256-212.992-214.016-212.992z" />
<glyph unicode="&#xe949;" glyph-name="corner-down-right" d="M640 64c-11.264 0-21.504 4.096-29.696 12.288-16.384 16.384-16.384 44.032 0 60.416l183.296 183.296-183.296 183.296c-16.384 16.384-16.384 44.032 0 60.416s44.032 16.384 60.416 0l212.992-212.992c16.384-16.384 16.384-44.032 0-60.416l-214.016-214.016c-8.192-8.192-18.432-12.288-29.696-12.288zM852.992 276.992h-512c-117.76 0-212.992 95.232-212.992 212.992v299.008c0 23.552 19.456 43.008 43.008 43.008s43.008-19.456 43.008-43.008v-299.008c0-70.656 57.344-128 128-128h512c23.552 0 43.008-19.456 43.008-43.008s-20.48-41.984-44.032-41.984z" />
<glyph unicode="&#xe94a;" glyph-name="corner-left-down" d="M384 64c-11.264 0-21.504 4.096-29.696 12.288l-214.016 214.016c-16.384 16.384-16.384 44.032 0 60.416s44.032 16.384 60.416 0l183.296-183.296 183.296 183.296c16.384 16.384 44.032 16.384 60.416 0s16.384-44.032 0-60.416l-214.016-214.016c-8.192-8.192-18.432-12.288-29.696-12.288zM384 64c-23.552 0-43.008 19.456-43.008 43.008v512c0 117.76 95.232 212.992 212.992 212.992h299.008c23.552 0 43.008-19.456 43.008-43.008s-19.456-43.008-43.008-43.008h-297.984c-70.656 0-128-57.344-128-128v-512c0-22.528-19.456-41.984-43.008-41.984z" />
<glyph unicode="&#xe94b;" glyph-name="corner-left-up" d="M171.008 532.992c-11.264 0-21.504 4.096-29.696 12.288-16.384 16.384-16.384 44.032 0 60.416l212.992 212.992c8.192 8.192 18.432 12.288 29.696 12.288v0c11.264 0 22.528-4.096 29.696-12.288l212.992-212.992c16.384-16.384 16.384-44.032 0-60.416s-44.032-16.384-60.416 0l-182.272 183.296-183.296-182.272c-8.192-9.216-19.456-13.312-29.696-13.312zM852.992 64h-297.984c-117.76 0-212.992 95.232-212.992 212.992v512c0 23.552 19.456 43.008 43.008 43.008s43.008-19.456 43.008-43.008v-512c0-70.656 57.344-128 128-128h299.008c23.552 0 43.008-19.456 43.008-43.008s-21.504-41.984-45.056-41.984z" />
<glyph unicode="&#xe94c;" glyph-name="corner-right-down" d="M640 64c-11.264 0-21.504 4.096-29.696 12.288l-214.016 214.016c-16.384 16.384-16.384 44.032 0 60.416s44.032 16.384 60.416 0l183.296-183.296 183.296 183.296c16.384 16.384 44.032 16.384 60.416 0s16.384-44.032 0-60.416l-214.016-214.016c-8.192-8.192-18.432-12.288-29.696-12.288zM640 64c-23.552 0-43.008 19.456-43.008 43.008v512c0 70.656-57.344 128-128 128h-297.984c-23.552 0-43.008 19.456-43.008 43.008s19.456 43.008 43.008 43.008h299.008c117.76 0 212.992-95.232 212.992-212.992v-512c0-24.576-19.456-44.032-43.008-44.032z" />
<glyph unicode="&#xe94d;" glyph-name="corner-right-up" d="M427.008 532.992c-11.264 0-21.504 4.096-29.696 12.288-16.384 16.384-16.384 44.032 0 60.416l212.992 212.992c8.192 8.192 18.432 12.288 29.696 12.288v0c11.264 0 22.528-4.096 29.696-12.288l212.992-212.992c16.384-16.384 16.384-44.032 0-60.416s-44.032-16.384-60.416 0l-182.272 183.296-183.296-182.272c-8.192-9.216-19.456-13.312-29.696-13.312zM468.992 64h-297.984c-23.552 0-43.008 19.456-43.008 43.008s19.456 43.008 43.008 43.008h299.008c70.656 0 128 57.344 128 128v512c0 23.552 19.456 43.008 43.008 43.008s43.008-19.456 43.008-43.008v-512c-1.024-118.784-97.28-214.016-215.040-214.016z" />
<glyph unicode="&#xe94e;" glyph-name="corner-up-left" d="M384 320c-11.264 0-21.504 4.096-29.696 12.288l-214.016 214.016c-8.192 8.192-12.288 18.432-12.288 29.696s4.096 22.528 12.288 29.696l212.992 212.992c16.384 16.384 44.032 16.384 60.416 0s16.384-44.032 0-60.416l-182.272-182.272 183.296-183.296c16.384-16.384 16.384-44.032 0-60.416-9.216-8.192-19.456-12.288-30.72-12.288zM852.992 64c-23.552 0-43.008 19.456-43.008 43.008v297.984c0 70.656-57.344 128-128 128h-512c-23.552 0-43.008 19.456-43.008 43.008s19.456 43.008 43.008 43.008h512c117.76 0 212.992-95.232 212.992-212.992v-299.008c1.024-23.552-18.432-43.008-41.984-43.008z" />
<glyph unicode="&#xe94f;" glyph-name="corner-up-right" d="M640 320c-11.264 0-21.504 4.096-29.696 12.288-16.384 16.384-16.384 44.032 0 60.416l183.296 183.296-183.296 183.296c-16.384 16.384-16.384 44.032 0 60.416s44.032 16.384 60.416 0l212.992-212.992c16.384-16.384 16.384-44.032 0-60.416l-214.016-214.016c-8.192-8.192-18.432-12.288-29.696-12.288zM171.008 64c-23.552 0-43.008 19.456-43.008 43.008v297.984c0 117.76 95.232 212.992 212.992 212.992h512c23.552 0 43.008-19.456 43.008-43.008s-19.456-43.008-43.008-43.008h-512c-70.656 0-128-57.344-128-128v-299.008c0-21.504-18.432-40.96-41.984-40.96z" />
<glyph unicode="&#xe950;" glyph-name="cpu" d="M768 64h-512c-70.656 0-128 57.344-128 128v512c0 70.656 57.344 128 128 128h512c70.656 0 128-57.344 128-128v-512c0-70.656-57.344-128-128-128zM256 747.008c-23.552 0-43.008-19.456-43.008-43.008v-512c0-23.552 19.456-43.008 43.008-43.008h512c23.552 0 43.008 19.456 43.008 43.008v512c0 23.552-19.456 43.008-43.008 43.008h-512zM640 276.992h-256c-23.552 0-43.008 19.456-43.008 43.008v256c0 23.552 19.456 43.008 43.008 43.008h256c23.552 0 43.008-19.456 43.008-43.008v-256c0-23.552-19.456-43.008-43.008-43.008zM427.008 363.008h171.008v169.984h-171.008v-169.984zM384 747.008c-23.552 0-43.008 19.456-43.008 43.008v126.976c0 23.552 19.456 43.008 43.008 43.008s43.008-19.456 43.008-43.008v-128c0-23.552-19.456-41.984-43.008-41.984zM640 747.008c-23.552 0-43.008 19.456-43.008 43.008v126.976c0 23.552 19.456 43.008 43.008 43.008s43.008-19.456 43.008-43.008v-128c0-23.552-19.456-41.984-43.008-41.984zM384-64c-23.552 0-43.008 19.456-43.008 43.008v128c0 23.552 19.456 43.008 43.008 43.008s43.008-19.456 43.008-43.008v-128c0-23.552-19.456-43.008-43.008-43.008zM640-64c-23.552 0-43.008 19.456-43.008 43.008v128c0 23.552 19.456 43.008 43.008 43.008s43.008-19.456 43.008-43.008v-128c0-23.552-19.456-43.008-43.008-43.008zM980.992 532.992h-128c-23.552 0-43.008 19.456-43.008 43.008s19.456 43.008 43.008 43.008h128c23.552 0 43.008-19.456 43.008-43.008s-19.456-43.008-43.008-43.008zM980.992 320h-128c-23.552 0-43.008 19.456-43.008 43.008s19.456 43.008 43.008 43.008h128c23.552 0 43.008-19.456 43.008-43.008s-19.456-43.008-43.008-43.008zM171.008 532.992h-128c-23.552 0-43.008 19.456-43.008 43.008s19.456 43.008 43.008 43.008h128c23.552 0 43.008-19.456 43.008-43.008s-19.456-43.008-43.008-43.008zM171.008 320h-128c-23.552 0-43.008 19.456-43.008 43.008s19.456 43.008 43.008 43.008h128c23.552 0 43.008-19.456 43.008-43.008s-19.456-43.008-43.008-43.008z" />
<glyph unicode="&#xe951;" glyph-name="credit-card" d="M896 64h-768c-70.656 0-128 57.344-128 128v512c0 70.656 57.344 128 128 128h768c70.656 0 128-57.344 128-128v-512c0-70.656-57.344-128-128-128zM128 747.008c-23.552 0-43.008-19.456-43.008-43.008v-512c0-23.552 19.456-43.008 43.008-43.008h768c23.552 0 43.008 19.456 43.008 43.008v512c0 23.552-19.456 43.008-43.008 43.008h-768zM980.992 491.008h-937.984c-23.552 0-43.008 18.432-43.008 41.984s19.456 43.008 43.008 43.008h939.008c23.552 0 43.008-19.456 43.008-43.008s-20.48-41.984-44.032-41.984z" />
<glyph unicode="&#xe952;" glyph-name="crop" d="M980.992 148.992h-640c-70.656 0-128 57.344-128 128l5.12 640c0 23.552 20.48 41.984 43.008 41.984 23.552 0 43.008-19.456 41.984-43.008l-5.12-640c0-23.552 19.456-41.984 43.008-41.984h640c23.552 0 43.008-19.456 43.008-43.008s-19.456-41.984-43.008-41.984zM768-64c-23.552 0-43.008 19.456-43.008 43.008v640c0 23.552-19.456 43.008-43.008 43.008l-638.976-6.144c0 0 0 0 0 0-23.552 0-41.984 18.432-43.008 41.984 0 23.552 18.432 43.008 41.984 43.008l640 5.12c70.656 0 128-57.344 128-128v-640c1.024-22.528-18.432-41.984-41.984-41.984z" />
<glyph unicode="&#xe953;" glyph-name="crosshair" d="M512-20.992c-259.072 0-468.992 209.92-468.992 468.992s209.92 468.992 468.992 468.992 468.992-209.92 468.992-468.992c0-259.072-209.92-468.992-468.992-468.992zM512 832c-211.968 0-384-172.032-384-384s172.032-384 384-384c211.968 0 384 172.032 384 384s-172.032 384-384 384zM939.008 404.992h-171.008c-23.552 0-43.008 19.456-43.008 43.008s19.456 43.008 43.008 43.008h171.008c23.552 0 43.008-19.456 43.008-43.008-1.024-23.552-19.456-43.008-43.008-43.008zM256 404.992h-171.008c-23.552 0-43.008 19.456-43.008 43.008s19.456 43.008 43.008 43.008h171.008c23.552 0 43.008-19.456 43.008-43.008s-19.456-43.008-43.008-43.008zM512 660.992c-23.552 0-43.008 19.456-43.008 43.008v171.008c0 23.552 19.456 43.008 43.008 43.008s43.008-19.456 43.008-43.008v-171.008c0-23.552-19.456-43.008-43.008-43.008zM512-20.992c-23.552 0-43.008 19.456-43.008 43.008v169.984c0 23.552 19.456 43.008 43.008 43.008s43.008-19.456 43.008-43.008v-171.008c0-23.552-19.456-41.984-43.008-41.984z" />
<glyph unicode="&#xe954;" glyph-name="database" d="M512 576c-205.824 0-427.008 53.248-427.008 171.008s221.184 169.984 427.008 169.984c205.824 0 427.008-53.248 427.008-171.008s-221.184-169.984-427.008-169.984zM512 832c-224.256 0-340.992-63.488-340.992-84.992s117.76-84.992 340.992-84.992 340.992 63.488 340.992 84.992-116.736 84.992-340.992 84.992zM512 276.992c-205.824 0-427.008 53.248-427.008 171.008 0 23.552 19.456 43.008 43.008 43.008s43.008-19.456 43.008-43.008c0-19.456 106.496-84.992 340.992-84.992s340.992 65.536 340.992 84.992c0 23.552 19.456 43.008 43.008 43.008s43.008-19.456 43.008-43.008c0-117.76-221.184-171.008-427.008-171.008zM512-20.992c-205.824 0-427.008 53.248-427.008 171.008v596.992c0 23.552 19.456 43.008 43.008 43.008s43.008-19.456 43.008-43.008v-596.992c0-19.456 106.496-84.992 340.992-84.992s340.992 65.536 340.992 84.992v596.992c0 23.552 19.456 43.008 43.008 43.008s43.008-19.456 43.008-43.008v-596.992c0-117.76-221.184-171.008-427.008-171.008z" />
<glyph unicode="&#xe955;" glyph-name="delete" d="M896 64h-555.008c-12.288 0-23.552 5.12-31.744 14.336l-299.008 342.016c-14.336 16.384-14.336 39.936 0 56.32l299.008 340.992c8.192 9.216 19.456 14.336 31.744 14.336h555.008c70.656 0 128-57.344 128-128v-512c0-70.656-57.344-128-128-128zM360.448 148.992h535.552c23.552 0 43.008 19.456 43.008 43.008v512c0 23.552-19.456 43.008-43.008 43.008h-535.552l-261.12-299.008 261.12-299.008zM512 276.992c-11.264 0-21.504 4.096-29.696 12.288-16.384 16.384-16.384 44.032 0 60.416l256 256c16.384 16.384 44.032 16.384 60.416 0s16.384-44.032 0-60.416l-256-256c-9.216-8.192-19.456-12.288-30.72-12.288zM768 276.992c-11.264 0-21.504 4.096-29.696 12.288l-256 256c-16.384 16.384-16.384 44.032 0 60.416s44.032 16.384 60.416 0l256-256c16.384-16.384 16.384-44.032 0-60.416-9.216-8.192-19.456-12.288-30.72-12.288z" />
<glyph unicode="&#xe956;" glyph-name="disc" d="M512-20.992c-259.072 0-468.992 209.92-468.992 468.992s209.92 468.992 468.992 468.992 468.992-209.92 468.992-468.992c0-259.072-209.92-468.992-468.992-468.992zM512 832c-211.968 0-384-172.032-384-384s172.032-384 384-384c211.968 0 384 172.032 384 384s-172.032 384-384 384zM512 276.992c-94.208 0-171.008 76.8-171.008 171.008s76.8 171.008 171.008 171.008c94.208 0 171.008-76.8 171.008-171.008s-76.8-171.008-171.008-171.008zM512 532.992c-47.104 0-84.992-37.888-84.992-84.992s37.888-84.992 84.992-84.992c47.104 0 84.992 37.888 84.992 84.992s-37.888 84.992-84.992 84.992z" />
<glyph unicode="&#xe957;" glyph-name="divide" d="M512 576c-70.656 0-128 57.344-128 128s57.344 128 128 128 128-57.344 128-128-57.344-128-128-128zM512 747.008c-23.552 0-43.008-19.456-43.008-43.008s19.456-43.008 43.008-43.008c23.552 0 43.008 19.456 43.008 43.008s-19.456 43.008-43.008 43.008zM811.008 404.992h-598.016c-23.552 0-43.008 19.456-43.008 43.008s19.456 43.008 43.008 43.008h596.992c23.552 0 43.008-19.456 43.008-43.008s-18.432-43.008-41.984-43.008zM512 64c-70.656 0-128 57.344-128 128s57.344 128 128 128 128-57.344 128-128-57.344-128-128-128zM512 235.008c-23.552 0-43.008-19.456-43.008-43.008s19.456-43.008 43.008-43.008c23.552 0 43.008 19.456 43.008 43.008s-19.456 43.008-43.008 43.008z" />
<glyph unicode="&#xe958;" glyph-name="divide-circle" d="M683.008 404.992h-342.016c-23.552 0-43.008 19.456-43.008 43.008s19.456 43.008 43.008 43.008h340.992c23.552 0 43.008-19.456 43.008-43.008s-18.432-43.008-41.984-43.008zM512 235.008c-11.264 0-22.528 4.096-30.72 12.288s-12.288 18.432-12.288 29.696c0 3.072 0 6.144 1.024 8.192 0 3.072 1.024 5.12 2.048 8.192s2.048 5.12 4.096 7.168c1.024 2.048 3.072 4.096 5.12 6.144 10.24 10.24 24.576 14.336 38.912 11.264 3.072-1.024 5.12-1.024 8.192-2.048s5.12-2.048 7.168-4.096c2.048-2.048 4.096-3.072 6.144-5.12 8.192-8.192 12.288-18.432 12.288-30.72 0-11.264-5.12-22.528-12.288-29.696-2.048-2.048-4.096-4.096-6.144-5.12s-5.12-3.072-7.168-4.096c-3.072-1.024-5.12-2.048-8.192-2.048s-5.12 0-8.192 0zM512 576c-11.264 0-22.528 4.096-30.72 12.288s-12.288 18.432-12.288 29.696c0 3.072 0 5.12 1.024 8.192s1.024 5.12 2.048 8.192c1.024 3.072 2.048 5.12 4.096 7.168 1.024 2.048 3.072 4.096 5.12 6.144s4.096 4.096 6.144 5.12c2.048 2.048 5.12 3.072 7.168 4.096 3.072 1.024 5.12 2.048 8.192 2.048 14.336 3.072 28.672-2.048 37.888-11.264 2.048-2.048 4.096-4.096 5.12-6.144s3.072-5.12 4.096-7.168c1.024-3.072 2.048-5.12 2.048-8.192s1.024-5.12 1.024-8.192c0-11.264-5.12-22.528-12.288-29.696-6.144-8.192-17.408-12.288-28.672-12.288zM512-20.992c-259.072 0-468.992 209.92-468.992 468.992s209.92 468.992 468.992 468.992 468.992-209.92 468.992-468.992c0-259.072-209.92-468.992-468.992-468.992zM512 832c-211.968 0-384-172.032-384-384s172.032-384 384-384c211.968 0 384 172.032 384 384s-172.032 384-384 384z" />
<glyph unicode="&#xe959;" glyph-name="divide-square" d="M811.008 20.992h-598.016c-70.656 0-128 57.344-128 128v598.016c0 70.656 57.344 128 128 128h596.992c70.656 0 128-57.344 128-128v-596.992c1.024-71.68-56.32-129.024-126.976-129.024zM212.992 788.992c-23.552 0-43.008-19.456-43.008-43.008v-596.992c0-23.552 19.456-43.008 43.008-43.008h596.992c23.552 0 43.008 19.456 43.008 43.008v598.016c0 23.552-19.456 43.008-43.008 43.008h-596.992zM683.008 404.992h-342.016c-23.552 0-43.008 19.456-43.008 43.008s19.456 43.008 43.008 43.008h340.992c23.552 0 43.008-19.456 43.008-43.008s-18.432-43.008-41.984-43.008zM512 235.008c-11.264 0-22.528 4.096-30.72 12.288s-12.288 18.432-12.288 29.696c0 3.072 0 6.144 1.024 8.192 0 3.072 1.024 5.12 2.048 8.192s2.048 5.12 4.096 7.168c1.024 2.048 3.072 4.096 5.12 6.144 10.24 10.24 24.576 14.336 38.912 11.264 3.072-1.024 5.12-1.024 8.192-2.048s5.12-2.048 7.168-4.096c2.048-2.048 4.096-3.072 6.144-5.12 8.192-8.192 12.288-18.432 12.288-30.72 0-11.264-5.12-22.528-12.288-29.696-2.048-2.048-4.096-4.096-6.144-5.12s-5.12-3.072-7.168-4.096c-3.072-1.024-5.12-2.048-8.192-2.048s-5.12 0-8.192 0zM512 576c-11.264 0-22.528 4.096-30.72 12.288s-12.288 18.432-12.288 29.696c0 3.072 0 5.12 1.024 8.192s1.024 5.12 2.048 8.192c1.024 3.072 2.048 5.12 4.096 7.168 1.024 2.048 3.072 4.096 5.12 6.144s4.096 4.096 6.144 5.12c2.048 2.048 5.12 3.072 7.168 4.096 3.072 1.024 5.12 2.048 8.192 2.048 14.336 3.072 28.672-2.048 37.888-11.264 2.048-2.048 4.096-4.096 5.12-6.144s3.072-5.12 4.096-7.168c1.024-3.072 2.048-5.12 2.048-8.192s1.024-5.12 1.024-8.192c0-11.264-5.12-22.528-12.288-29.696-6.144-8.192-17.408-12.288-28.672-12.288z" />
<glyph unicode="&#xe95a;" glyph-name="dollar-sign" d="M512-64c-23.552 0-43.008 19.456-43.008 43.008v937.984c0 23.552 19.456 43.008 43.008 43.008s43.008-19.456 43.008-43.008v-939.008c0-22.528-19.456-41.984-43.008-41.984zM618.496 107.008h-362.496c-23.552 0-43.008 19.456-43.008 43.008s19.456 41.984 43.008 41.984h362.496c58.368 0 106.496 48.128 106.496 106.496s-48.128 106.496-106.496 106.496h-212.992c-105.472 0-192.512 86.016-192.512 192.512s86.016 192.512 192.512 192.512h319.488c23.552 0 43.008-19.456 43.008-43.008s-19.456-43.008-43.008-43.008h-319.488c-58.368 0-106.496-48.128-106.496-106.496s48.128-106.496 106.496-106.496h212.992c105.472 0 192.512-86.016 192.512-191.488s-86.016-192.512-192.512-192.512z" />
<glyph unicode="&#xe95b;" glyph-name="download" d="M811.008 20.992h-598.016c-70.656 0-128 57.344-128 128v171.008c0 23.552 19.456 43.008 43.008 43.008s43.008-19.456 43.008-43.008v-171.008c0-23.552 19.456-43.008 43.008-43.008h596.992c23.552 0 43.008 19.456 43.008 43.008v171.008c0 23.552 19.456 43.008 43.008 43.008s43.008-19.456 43.008-43.008v-171.008c-1.024-70.656-58.368-128-129.024-128zM512 276.992c-11.264 0-22.528 4.096-29.696 12.288l-214.016 214.016c-16.384 16.384-16.384 44.032 0 60.416s44.032 16.384 60.416 0l183.296-183.296 183.296 183.296c16.384 16.384 44.032 16.384 60.416 0s16.384-44.032 0-60.416l-214.016-212.992c-7.168-8.192-18.432-13.312-29.696-13.312zM512 276.992c-23.552 0-43.008 19.456-43.008 43.008v512c0 23.552 19.456 43.008 43.008 43.008s43.008-19.456 43.008-43.008v-512c0-23.552-19.456-43.008-43.008-43.008z" />
<glyph unicode="&#xe95c;" glyph-name="download-cloud" d="M512 20.992v0c-11.264 0-22.528 4.096-29.696 12.288l-171.008 171.008c-16.384 16.384-16.384 44.032 0 60.416s44.032 16.384 60.416 0l140.288-140.288 140.288 140.288c16.384 16.384 44.032 16.384 60.416 0s16.384-44.032 0-60.416l-171.008-169.984c-7.168-8.192-18.432-13.312-29.696-13.312zM512 20.992c-23.552 0-43.008 19.456-43.008 43.008v384c0 23.552 19.456 43.008 43.008 43.008s43.008-19.456 43.008-43.008v-384c0-23.552-19.456-43.008-43.008-43.008zM890.88 145.92c-13.312 0-26.624 6.144-34.816 18.432-13.312 19.456-9.216 46.080 10.24 59.392 36.864 26.624 62.464 65.536 69.632 110.592 8.192 45.056-2.048 90.112-28.672 126.976-31.744 45.056-83.968 72.704-139.264 72.704 0 0 0 0 0 0h-54.272c-19.456 0-36.864 13.312-40.96 31.744-19.456 76.8-68.608 142.336-137.216 182.272-68.608 40.96-149.504 52.224-226.304 31.744-76.8-19.456-142.336-68.608-183.296-137.216s-52.224-149.504-31.744-226.304c11.264-46.080 34.816-88.064 65.536-123.904 15.36-17.408 14.336-45.056-4.096-60.416-17.408-15.36-45.056-14.336-60.416 4.096-39.936 45.056-69.632 100.352-83.968 158.72-52.224 204.8 71.68 414.72 276.48 466.944 99.328 25.6 202.752 11.264 290.816-40.96 78.848-46.080 137.216-117.76 166.912-202.752h22.528c0 0 0 0 0 0 82.944 0 161.792-40.96 208.896-108.544 38.912-56.32 54.272-123.904 43.008-191.488s-49.152-125.952-104.448-165.888c-7.168-4.096-16.384-6.144-24.576-6.144z" />
<glyph unicode="&#xe95d;" glyph-name="dribbble" d="M512-20.992c-259.072 0-468.992 209.92-468.992 468.992s209.92 468.992 468.992 468.992 468.992-209.92 468.992-468.992c0-259.072-209.92-468.992-468.992-468.992zM512 832c-211.968 0-384-172.032-384-384s172.032-384 384-384c211.968 0 384 172.032 384 384s-172.032 384-384 384zM707.584 43.52c-19.456 0-36.864 13.312-40.96 32.768-29.696 121.856-57.344 218.112-87.040 301.056-6.144-2.048-12.288-4.096-18.432-6.144-106.496-37.888-203.776-120.832-296.96-253.952-13.312-19.456-39.936-23.552-59.392-10.24s-23.552 39.936-10.24 59.392c103.424 148.48 214.016 241.664 337.92 285.696 5.12 2.048 10.24 3.072 15.36 5.12-7.168 16.384-14.336 32.768-22.528 49.152-125.952-37.888-268.288-52.224-428.032-55.296-23.552-1.024-43.008 18.432-44.032 41.984s18.432 43.008 41.984 44.032c158.72 4.096 285.696 18.432 389.12 48.128-40.96 73.728-91.136 146.432-153.6 233.472-14.336 19.456-9.216 46.080 9.216 59.392 19.456 13.312 46.080 9.216 59.392-10.24 68.608-95.232 121.856-176.128 165.888-254.976 89.088 36.864 158.72 89.088 218.112 157.696 15.36 17.408 41.984 20.48 60.416 5.12 17.408-15.36 20.48-41.984 5.12-60.416-69.632-81.92-151.552-139.264-243.712-179.2 9.216-19.456 18.432-39.936 26.624-59.392 93.184 13.312 198.656 6.144 307.2-23.552 22.528-6.144 35.84-29.696 30.72-52.224-6.144-22.528-29.696-35.84-52.224-30.72-89.088 23.552-176.128 31.744-252.928 23.552 30.72-84.992 57.344-180.224 86.016-297.984 5.12-22.528-8.192-46.080-31.744-51.2-4.096 0-8.192-1.024-11.264-1.024z" />
<glyph unicode="&#xe95e;" glyph-name="droplet" d="M512-22.016c-102.4 0-198.656 39.936-271.36 112.64s-112.64 168.96-112.64 271.36c0 102.4 39.936 198.656 112.64 271.36l241.664 241.664c7.168 8.192 18.432 13.312 29.696 13.312 0 0 0 0 0 0 11.264 0 22.528-4.096 29.696-12.288l241.664-241.664c72.704-72.704 112.64-168.96 112.64-271.36s-39.936-198.656-112.64-271.36c-71.68-73.728-168.96-113.664-271.36-113.664 0 0 0 0 0 0zM512 784.896l-210.944-210.944c-56.32-56.32-88.064-132.096-88.064-210.944 0-79.872 30.72-154.624 87.040-210.944s131.072-87.040 210.944-87.040c0 0 0 0 0 0 79.872 0 154.624 30.72 210.944 87.040s87.040 131.072 87.040 210.944c0 79.872-30.72 154.624-87.040 210.944l-209.92 210.944z" />
<glyph unicode="&#xe95f;" glyph-name="edit" d="M768-20.992h-596.992c-70.656 0-128 57.344-128 128v596.992c0 70.656 57.344 128 128 128h299.008c23.552 0 43.008-19.456 43.008-43.008s-19.456-43.008-43.008-43.008h-299.008c-23.552 0-43.008-19.456-43.008-43.008v-596.992c0-23.552 19.456-43.008 43.008-43.008h596.992c23.552 0 43.008 19.456 43.008 43.008v299.008c0 23.552 19.456 43.008 43.008 43.008s43.008-19.456 43.008-43.008v-299.008c-1.024-69.632-58.368-126.976-129.024-126.976zM340.992 235.008c-11.264 0-22.528 4.096-29.696 12.288-10.24 10.24-15.36 25.6-11.264 40.96l43.008 169.984c2.048 7.168 6.144 14.336 11.264 19.456l404.48 405.504c25.6 25.6 58.368 38.912 94.208 38.912s68.608-14.336 94.208-38.912 38.912-58.368 38.912-94.208-14.336-68.608-38.912-94.208l-405.504-404.48c-5.12-5.12-12.288-9.216-19.456-11.264l-171.008-43.008c-3.072-1.024-6.144-1.024-10.24-1.024zM422.912 426.496l-22.528-90.112 90.112 22.528 396.288 396.288c9.216 9.216 14.336 21.504 14.336 33.792s-5.12 24.576-14.336 33.792c-9.216 9.216-21.504 14.336-33.792 14.336s-24.576-5.12-33.792-14.336l-396.288-396.288z" />
<glyph unicode="&#xe960;" glyph-name="edit-2" d="M84.992-20.992c-11.264 0-22.528 4.096-29.696 12.288-11.264 11.264-15.36 26.624-11.264 40.96l64.512 234.496c2.048 7.168 6.144 13.312 11.264 18.432l575.488 576.512c63.488 63.488 166.912 63.488 231.424 0 30.72-30.72 48.128-71.68 48.128-115.712s-17.408-84.992-48.128-115.712l-576.512-575.488c-5.12-5.12-12.288-9.216-19.456-11.264l-234.496-63.488c-3.072-1.024-7.168-1.024-11.264-1.024zM187.392 233.984l-40.96-151.552 151.552 40.96 568.32 568.32c14.336 14.336 22.528 34.816 22.528 55.296s-8.192 39.936-22.528 55.296c-30.72 30.72-79.872 30.72-110.592 0l-568.32-568.32z" />
<glyph unicode="&#xe961;" glyph-name="edit-3" d="M896 64h-384c-23.552 0-43.008 19.456-43.008 43.008s19.456 43.008 43.008 43.008h384c23.552 0 43.008-19.456 43.008-43.008s-19.456-43.008-43.008-43.008zM128 64c-11.264 0-22.528 4.096-29.696 12.288-10.24 10.24-15.36 25.6-11.264 40.96l43.008 171.008c2.048 7.168 6.144 14.336 11.264 19.456l533.504 533.504c52.224 52.224 136.192 52.224 188.416 0 25.6-25.6 38.912-58.368 38.912-94.208s-14.336-68.608-38.912-94.208l-534.528-533.504c-5.12-5.12-12.288-9.216-19.456-11.264l-171.008-43.008c-3.072-1.024-7.168-1.024-10.24-1.024zM208.896 255.488l-22.528-90.112 90.112 22.528 525.312 525.312c9.216 9.216 14.336 21.504 14.336 33.792s-5.12 24.576-14.336 33.792c-18.432 18.432-49.152 18.432-67.584 0l-525.312-525.312z" />
<glyph unicode="&#xe962;" glyph-name="external-link" d="M683.008 20.992h-470.016c-70.656 0-128 57.344-128 128v470.016c0 70.656 57.344 128 128 128h256c23.552 0 43.008-19.456 43.008-43.008s-19.456-43.008-43.008-43.008h-256c-23.552 0-43.008-19.456-43.008-43.008v-468.992c0-23.552 19.456-43.008 43.008-43.008h468.992c23.552 0 43.008 19.456 43.008 43.008v256c0 23.552 19.456 43.008 43.008 43.008s43.008-19.456 43.008-43.008v-256c0-70.656-57.344-128-128-128zM896 532.992c-23.552 0-43.008 19.456-43.008 43.008v212.992h-212.992c-23.552 0-43.008 19.456-43.008 43.008s19.456 43.008 43.008 43.008h256c23.552 0 43.008-19.456 43.008-43.008v-256c0-23.552-19.456-43.008-43.008-43.008zM427.008 320c-11.264 0-21.504 4.096-29.696 12.288-16.384 16.384-16.384 44.032 0 60.416l468.992 468.992c16.384 16.384 44.032 16.384 60.416 0s16.384-44.032 0-60.416l-470.016-468.992c-8.192-8.192-19.456-12.288-29.696-12.288z" />
<glyph unicode="&#xe963;" glyph-name="eye" d="M512 64c-321.536 0-499.712 350.208-507.904 364.544-6.144 12.288-6.144 26.624 0 37.888 8.192 15.36 186.368 365.568 507.904 365.568s499.712-350.208 507.904-364.544c6.144-12.288 6.144-26.624 0-37.888-8.192-15.36-186.368-365.568-507.904-365.568zM91.136 448c39.936-68.608 191.488-299.008 420.864-299.008s380.928 230.4 420.864 299.008c-39.936 68.608-191.488 299.008-420.864 299.008s-380.928-230.4-420.864-299.008zM43.008 448v0 0zM512 276.992c-94.208 0-171.008 76.8-171.008 171.008s76.8 171.008 171.008 171.008c94.208 0 171.008-76.8 171.008-171.008s-76.8-171.008-171.008-171.008zM512 532.992c-47.104 0-84.992-37.888-84.992-84.992s37.888-84.992 84.992-84.992c47.104 0 84.992 37.888 84.992 84.992s-37.888 84.992-84.992 84.992z" />
<glyph unicode="&#xe964;" glyph-name="eye-off" d="M513.024 64c-321.536 0-500.736 350.208-507.904 364.544-6.144 12.288-6.144 26.624 1.024 38.912 56.32 105.472 133.12 194.56 227.328 267.264 18.432 14.336 45.056 10.24 59.392-8.192s10.24-45.056-8.192-59.392c-78.848-60.416-143.36-134.144-192.512-219.136 39.936-68.608 191.488-299.008 420.864-299.008 82.944 1.024 161.792 28.672 227.328 78.848 18.432 14.336 45.056 10.24 59.392-8.192s10.24-45.056-8.192-59.392c-80.896-61.44-177.152-94.208-278.528-96.256zM888.832 268.8c-9.216 0-19.456 3.072-27.648 10.24-18.432 15.36-20.48 41.984-5.12 60.416 28.672 33.792 54.272 70.656 75.776 108.544-38.912 68.608-190.464 299.008-419.84 299.008-27.648 0-54.272-3.072-79.872-9.216-22.528-5.12-46.080 9.216-51.2 31.744s9.216 46.080 31.744 51.2c32.768 7.168 66.56 11.264 99.328 11.264 321.536 0 499.712-350.208 506.88-364.544 6.144-12.288 6.144-26.624-1.024-38.912-27.648-51.2-60.416-99.328-97.28-143.36-7.168-11.264-19.456-16.384-31.744-16.384zM508.928 273.92c-43.008 0-83.968 16.384-115.712 46.080-33.792 30.72-52.224 73.728-54.272 118.784s14.336 89.088 46.080 121.856c3.072 3.072 5.12 6.144 8.192 8.192 17.408 16.384 44.032 15.36 60.416-2.048s15.36-44.032-2.048-60.416c-1.024-1.024-3.072-3.072-4.096-4.096-15.36-16.384-23.552-37.888-22.528-61.44 1.024-22.528 10.24-44.032 26.624-59.392s38.912-23.552 61.44-22.528c22.528 1.024 44.032 10.24 59.392 26.624 16.384 17.408 43.008 18.432 60.416 2.048s18.432-43.008 2.048-60.416c-30.72-33.792-73.728-52.224-118.784-54.272-3.072 1.024-5.12 1.024-7.168 1.024zM980.992-64c-11.264 0-21.504 4.096-29.696 12.288l-939.008 939.008c-16.384 16.384-16.384 44.032 0 60.416s44.032 16.384 60.416 0l939.008-939.008c16.384-16.384 16.384-44.032 0-60.416-8.192-8.192-19.456-12.288-30.72-12.288z" />
<glyph unicode="&#xe965;" glyph-name="facebook" d="M596.992-20.992h-169.984c-23.552 0-43.008 19.456-43.008 43.008v297.984h-84.992c-23.552 0-43.008 19.456-43.008 43.008v169.984c0 23.552 19.456 43.008 43.008 43.008h84.992v84.992c0 141.312 114.688 256 256 256h128c23.552 0 43.008-19.456 43.008-43.008v-169.984c0-23.552-19.456-43.008-43.008-43.008h-128v-84.992h128c13.312 0 25.6-6.144 33.792-16.384s11.264-23.552 8.192-36.864l-43.008-171.008c-5.12-19.456-21.504-32.768-40.96-32.768h-84.992v-299.008c-1.024-22.528-20.48-40.96-44.032-40.96zM468.992 64h84.992v299.008c0 23.552 19.456 43.008 43.008 43.008h94.208l21.504 84.992h-115.712c-23.552 0-43.008 19.456-43.008 43.008v126.976c0 47.104 37.888 84.992 84.992 84.992h84.992v84.992h-84.992c-94.208 0-171.008-76.8-171.008-171.008v-128c0-23.552-19.456-43.008-43.008-43.008h-84.992v-84.992h84.992c23.552 0 43.008-19.456 43.008-43.008v-296.96z" />
<glyph unicode="&#xe966;" glyph-name="fast-forward" d="M555.008 107.008c-6.144 0-12.288 1.024-18.432 4.096-14.336 7.168-23.552 22.528-23.552 37.888v598.016c0 16.384 9.216 30.72 23.552 37.888s31.744 5.12 45.056-5.12l384-299.008c10.24-8.192 16.384-20.48 16.384-33.792s-6.144-25.6-16.384-33.792l-385.024-297.984c-7.168-5.12-16.384-8.192-25.6-8.192zM596.992 658.944v-422.912l272.384 211.968-272.384 210.944zM84.992 107.008c-6.144 0-12.288 1.024-18.432 4.096-14.336 7.168-23.552 22.528-23.552 37.888v598.016c0 16.384 9.216 30.72 23.552 37.888s31.744 5.12 45.056-5.12l384-299.008c10.24-8.192 16.384-20.48 16.384-33.792s-6.144-25.6-16.384-33.792l-384-297.984c-8.192-5.12-17.408-8.192-26.624-8.192zM128 658.944v-422.912l271.36 211.968-271.36 210.944z" />
<glyph unicode="&#xe967;" glyph-name="feather" d="M576.512 107.008h-363.52c-23.552 0-43.008 19.456-43.008 43.008v361.472c0 11.264 4.096 22.528 12.288 29.696l288.768 288.768c56.32 56.32 131.072 87.040 210.944 87.040s154.624-30.72 210.944-87.040c116.736-116.736 116.736-306.176 0-422.912v0l-286.72-287.744c-8.192-8.192-18.432-12.288-29.696-12.288zM256 192h302.080l275.456 275.456c0 0 0 0 0 0 82.944 82.944 82.944 219.136 0 302.080-39.936 39.936-94.208 62.464-150.528 62.464s-110.592-22.528-150.528-62.464l-276.48-275.456v-302.080zM84.992-20.992c-11.264 0-21.504 4.096-29.696 12.288-16.384 16.384-16.384 44.032 0 60.416l596.992 596.992c16.384 16.384 44.032 16.384 60.416 0s16.384-44.032 0-60.416l-596.992-596.992c-8.192-8.192-19.456-12.288-30.72-12.288zM746.496 276.992h-362.496c-23.552 0-43.008 19.456-43.008 43.008s19.456 43.008 43.008 43.008h362.496c23.552 0 43.008-19.456 43.008-43.008s-19.456-43.008-43.008-43.008z" />
<glyph unicode="&#xe968;" glyph-name="figma" d="M512 532.992h-149.504c-105.472 0-191.488 86.016-191.488 192.512s86.016 191.488 191.488 191.488h149.504c23.552 0 43.008-19.456 43.008-43.008v-299.008c0-22.528-19.456-41.984-43.008-41.984zM362.496 832c-58.368 0-106.496-48.128-106.496-106.496s48.128-106.496 106.496-106.496h106.496v212.992h-106.496zM661.504 532.992h-149.504c-23.552 0-43.008 19.456-43.008 43.008v299.008c0 23.552 19.456 43.008 43.008 43.008h149.504c105.472 0 192.512-86.016 192.512-192.512s-87.040-192.512-192.512-192.512zM555.008 619.008h106.496c58.368 0 106.496 48.128 106.496 106.496s-48.128 106.496-106.496 106.496h-106.496v-212.992zM661.504 235.008c-105.472 0-191.488 86.016-191.488 192.512 0 105.472 86.016 191.488 191.488 191.488s192.512-86.016 192.512-191.488c-1.024-106.496-87.040-192.512-192.512-192.512zM661.504 532.992c-58.368 0-106.496-48.128-106.496-106.496s48.128-106.496 106.496-106.496c58.368 0 106.496 48.128 106.496 106.496 0 59.392-48.128 106.496-106.496 106.496zM362.496-64c-105.472 0-191.488 86.016-191.488 192.512s86.016 192.512 191.488 192.512h149.504c23.552 0 43.008-19.456 43.008-43.008v-149.504c0-106.496-86.016-192.512-192.512-192.512zM362.496 235.008c-58.368 0-106.496-48.128-106.496-106.496s48.128-106.496 106.496-106.496 106.496 47.104 106.496 105.472v107.52h-106.496zM512 235.008h-149.504c-105.472 0-191.488 86.016-191.488 192.512 0 105.472 86.016 191.488 191.488 191.488h149.504c23.552 0 43.008-19.456 43.008-43.008v-299.008c0-23.552-19.456-41.984-43.008-41.984zM362.496 532.992c-58.368 0-106.496-48.128-106.496-106.496s48.128-106.496 106.496-106.496h106.496v212.992h-106.496z" />
<glyph unicode="&#xe969;" glyph-name="file" d="M768-20.992h-512c-70.656 0-128 57.344-128 128v681.984c0 70.656 57.344 128 128 128h299.008c11.264 0 22.528-4.096 29.696-12.288l299.008-299.008c8.192-8.192 12.288-18.432 12.288-29.696v-468.992c0-70.656-57.344-128-128-128zM256 832c-23.552 0-43.008-19.456-43.008-43.008v-683.008c0-23.552 19.456-43.008 43.008-43.008h512c23.552 0 43.008 19.456 43.008 43.008v452.608l-274.432 273.408h-280.576zM852.992 532.992h-297.984c-23.552 0-43.008 19.456-43.008 43.008v299.008c0 23.552 19.456 43.008 43.008 43.008s43.008-19.456 43.008-43.008v-256h256c23.552 0 43.008-19.456 43.008-43.008s-20.48-43.008-44.032-43.008z" />
<glyph unicode="&#xe96a;" glyph-name="file-minus" d="M768-20.992h-512c-70.656 0-128 57.344-128 128v681.984c0 70.656 57.344 128 128 128h340.992c11.264 0 22.528-4.096 29.696-12.288l256-256c8.192-8.192 12.288-18.432 12.288-29.696v-512c1.024-70.656-56.32-128-126.976-128zM256 832c-23.552 0-43.008-19.456-43.008-43.008v-683.008c0-23.552 19.456-43.008 43.008-43.008h512c23.552 0 43.008 19.456 43.008 43.008v494.592l-231.424 231.424h-323.584zM852.992 576h-256c-23.552 0-43.008 19.456-43.008 43.008v256c0 23.552 19.456 43.008 43.008 43.008s43.008-19.456 43.008-43.008v-212.992h212.992c23.552 0 43.008-19.456 43.008-43.008s-19.456-43.008-43.008-43.008zM640 276.992h-256c-23.552 0-43.008 19.456-43.008 43.008s19.456 43.008 43.008 43.008h256c23.552 0 43.008-19.456 43.008-43.008s-19.456-43.008-43.008-43.008z" />
<glyph unicode="&#xe96b;" glyph-name="file-plus" d="M768-20.992h-512c-70.656 0-128 57.344-128 128v681.984c0 70.656 57.344 128 128 128h340.992c11.264 0 22.528-4.096 29.696-12.288l256-256c8.192-8.192 12.288-18.432 12.288-29.696v-512c1.024-70.656-56.32-128-126.976-128zM256 832c-23.552 0-43.008-19.456-43.008-43.008v-683.008c0-23.552 19.456-43.008 43.008-43.008h512c23.552 0 43.008 19.456 43.008 43.008v494.592l-231.424 231.424h-323.584zM852.992 576h-256c-23.552 0-43.008 19.456-43.008 43.008v256c0 23.552 19.456 43.008 43.008 43.008s43.008-19.456 43.008-43.008v-212.992h212.992c23.552 0 43.008-19.456 43.008-43.008s-19.456-43.008-43.008-43.008zM512 148.992c-23.552 0-43.008 19.456-43.008 43.008v256c0 23.552 19.456 43.008 43.008 43.008s43.008-19.456 43.008-43.008v-256c0-23.552-19.456-43.008-43.008-43.008zM640 276.992h-256c-23.552 0-43.008 19.456-43.008 43.008s19.456 43.008 43.008 43.008h256c23.552 0 43.008-19.456 43.008-43.008s-19.456-43.008-43.008-43.008z" />
<glyph unicode="&#xe96c;" glyph-name="file-text" d="M768-20.992h-512c-70.656 0-128 57.344-128 128v681.984c0 70.656 57.344 128 128 128h340.992c11.264 0 22.528-4.096 29.696-12.288l256-256c8.192-8.192 12.288-18.432 12.288-29.696v-512c1.024-70.656-56.32-128-126.976-128zM256 832c-23.552 0-43.008-19.456-43.008-43.008v-683.008c0-23.552 19.456-43.008 43.008-43.008h512c23.552 0 43.008 19.456 43.008 43.008v494.592l-231.424 231.424h-323.584zM852.992 576h-256c-23.552 0-43.008 19.456-43.008 43.008v256c0 23.552 19.456 43.008 43.008 43.008s43.008-19.456 43.008-43.008v-212.992h212.992c23.552 0 43.008-19.456 43.008-43.008s-19.456-43.008-43.008-43.008zM683.008 363.008h-342.016c-23.552 0-43.008 19.456-43.008 43.008s19.456 41.984 43.008 41.984h340.992c23.552 0 43.008-19.456 43.008-43.008s-18.432-41.984-41.984-41.984zM683.008 192h-342.016c-23.552 0-43.008 19.456-43.008 43.008s19.456 43.008 43.008 43.008h340.992c23.552 0 43.008-19.456 43.008-43.008s-18.432-43.008-41.984-43.008zM427.008 532.992h-84.992c-23.552 0-43.008 19.456-43.008 43.008s19.456 43.008 43.008 43.008h84.992c23.552 0 43.008-19.456 43.008-43.008s-19.456-43.008-43.008-43.008z" />
<glyph unicode="&#xe96d;" glyph-name="film" d="M845.824-20.992h-667.648c-74.752 0-135.168 60.416-135.168 136.192v666.624c0 74.752 60.416 135.168 135.168 135.168h667.648c74.752 0 136.192-60.416 136.192-135.168v-667.648c-1.024-74.752-61.44-135.168-136.192-135.168zM178.176 832c-27.648 0-50.176-22.528-50.176-50.176v-667.648c0-27.648 22.528-50.176 50.176-50.176h667.648c27.648 0 50.176 22.528 50.176 50.176v667.648c0 27.648-22.528 50.176-50.176 50.176h-667.648zM299.008-20.992c-23.552 0-43.008 19.456-43.008 43.008v852.992c0 23.552 19.456 43.008 43.008 43.008s43.008-19.456 43.008-43.008v-852.992c-1.024-24.576-19.456-43.008-43.008-43.008zM724.992-20.992c-23.552 0-43.008 19.456-43.008 43.008v852.992c0 23.552 19.456 43.008 43.008 43.008s43.008-19.456 43.008-43.008v-852.992c0-24.576-19.456-43.008-43.008-43.008zM939.008 404.992h-854.016c-23.552 0-43.008 19.456-43.008 43.008s19.456 43.008 43.008 43.008h852.992c23.552 0 43.008-19.456 43.008-43.008s-18.432-43.008-41.984-43.008zM299.008 619.008h-214.016c-23.552 0-43.008 19.456-43.008 43.008s19.456 41.984 43.008 41.984h212.992c23.552 0 43.008-19.456 43.008-43.008s-18.432-41.984-41.984-41.984zM299.008 192h-214.016c-23.552 0-43.008 19.456-43.008 43.008s19.456 43.008 43.008 43.008h212.992c23.552 0 43.008-19.456 43.008-43.008s-18.432-43.008-41.984-43.008zM939.008 192h-214.016c-23.552 0-43.008 19.456-43.008 43.008s19.456 43.008 43.008 43.008h212.992c23.552 0 43.008-19.456 43.008-43.008s-18.432-43.008-41.984-43.008zM939.008 619.008h-214.016c-23.552 0-43.008 19.456-43.008 43.008s19.456 43.008 43.008 43.008h212.992c23.552 0 43.008-19.456 43.008-43.008s-18.432-43.008-41.984-43.008z" />
<glyph unicode="&#xe96e;" glyph-name="filter" d="M596.992 20.992c-6.144 0-13.312 1.024-19.456 4.096l-171.008 84.992c-14.336 7.168-23.552 21.504-23.552 37.888v265.216l-329.728 391.168c-10.24 12.288-13.312 30.72-6.144 45.056 7.168 15.36 22.528 24.576 38.912 24.576h852.992c16.384 0 31.744-9.216 38.912-24.576s5.12-32.768-6.144-45.056l-331.776-391.168v-349.184c0-14.336-7.168-28.672-20.48-35.84-6.144-5.12-14.336-7.168-22.528-7.168zM468.992 175.616l84.992-43.008v295.936c0 10.24 3.072 19.456 10.24 27.648l281.6 333.824h-668.672l281.6-333.824c6.144-8.192 10.24-17.408 10.24-27.648v-252.928z" />
<glyph unicode="&#xe96f;" glyph-name="flag" d="M683.008 235.008c-72.704 0-130.048 23.552-186.368 46.080-51.2 20.48-99.328 39.936-154.624 39.936-97.28 0-136.192-26.624-141.312-30.72-11.264-13.312-29.696-16.384-46.080-10.24s-26.624 23.552-26.624 40.96v512c0 11.264 4.096 22.528 12.288 29.696 9.216 9.216 62.464 55.296 200.704 55.296 72.704 0 130.048-23.552 186.368-46.080 51.2-20.48 99.328-39.936 154.624-39.936 97.28 0 136.192 26.624 141.312 30.72 11.264 13.312 28.672 16.384 46.080 10.24 16.384-6.144 26.624-23.552 26.624-40.96v-512c0-11.264-4.096-22.528-12.288-29.696-9.216-9.216-62.464-55.296-200.704-55.296zM340.992 404.992c72.704 0 130.048-23.552 186.368-46.080 51.2-20.48 99.328-39.936 154.624-39.936 69.632 0 109.568 14.336 128 22.528v421.888c-30.72-9.216-72.704-16.384-128-16.384-72.704 0-130.048 23.552-186.368 46.080-51.2 20.48-99.328 39.936-154.624 39.936-69.632 0-109.568-13.312-128-22.528v-420.864c30.72 8.192 72.704 15.36 128 15.36zM823.296 861.696v0 0zM171.008-20.992c-23.552 0-43.008 19.456-43.008 43.008v297.984c0 23.552 19.456 43.008 43.008 43.008s43.008-19.456 43.008-43.008v-299.008c-1.024-23.552-19.456-41.984-43.008-41.984z" />
<glyph unicode="&#xe970;" glyph-name="folder" d="M852.992 20.992h-681.984c-70.656 0-128 57.344-128 128v598.016c0 70.656 57.344 128 128 128h212.992c14.336 0 27.648-7.168 35.84-19.456l72.704-108.544h361.472c70.656 0 128-57.344 128-128v-468.992c-1.024-71.68-58.368-129.024-129.024-129.024zM171.008 788.992c-23.552 0-43.008-19.456-43.008-43.008v-596.992c0-23.552 19.456-43.008 43.008-43.008h683.008c23.552 0 43.008 19.456 43.008 43.008v470.016c0 23.552-19.456 43.008-43.008 43.008h-385.024c-14.336 0-27.648 7.168-35.84 19.456l-72.704 108.544h-189.44z" />
<glyph unicode="&#xe971;" glyph-name="folder-minus" d="M852.992 20.992h-681.984c-70.656 0-128 57.344-128 128v598.016c0 70.656 57.344 128 128 128h212.992c14.336 0 27.648-7.168 35.84-19.456l72.704-108.544h361.472c70.656 0 128-57.344 128-128v-468.992c-1.024-71.68-58.368-129.024-129.024-129.024zM171.008 788.992c-23.552 0-43.008-19.456-43.008-43.008v-596.992c0-23.552 19.456-43.008 43.008-43.008h683.008c23.552 0 43.008 19.456 43.008 43.008v470.016c0 23.552-19.456 43.008-43.008 43.008h-385.024c-14.336 0-27.648 7.168-35.84 19.456l-72.704 108.544h-189.44zM640 320h-256c-23.552 0-43.008 19.456-43.008 43.008s19.456 43.008 43.008 43.008h256c23.552 0 43.008-19.456 43.008-43.008s-19.456-43.008-43.008-43.008z" />
<glyph unicode="&#xe972;" glyph-name="folder-plus" d="M852.992 20.992h-681.984c-70.656 0-128 57.344-128 128v598.016c0 70.656 57.344 128 128 128h212.992c14.336 0 27.648-7.168 35.84-19.456l72.704-108.544h361.472c70.656 0 128-57.344 128-128v-468.992c-1.024-71.68-58.368-129.024-129.024-129.024zM171.008 788.992c-23.552 0-43.008-19.456-43.008-43.008v-596.992c0-23.552 19.456-43.008 43.008-43.008h683.008c23.552 0 43.008 19.456 43.008 43.008v470.016c0 23.552-19.456 43.008-43.008 43.008h-385.024c-14.336 0-27.648 7.168-35.84 19.456l-72.704 108.544h-189.44zM512 192c-23.552 0-43.008 19.456-43.008 43.008v256c0 23.552 19.456 43.008 43.008 43.008s43.008-19.456 43.008-43.008v-256c0-23.552-19.456-43.008-43.008-43.008zM640 320h-256c-23.552 0-43.008 19.456-43.008 43.008s19.456 43.008 43.008 43.008h256c23.552 0 43.008-19.456 43.008-43.008s-19.456-43.008-43.008-43.008z" />
</font>
</defs>
</svg>
